<svg width="962" height="897" viewBox="0 0 962 897" fill="none" xmlns="http://www.w3.org/2000/svg">
<g filter="url(#filter0_d)">
<path d="M177.5 275L274.062 332.25V446.75L177.5 504L80.9382 446.75V332.25L177.5 275Z" fill="white"/>
<path d="M81.4382 332.535L177.5 275.581L273.562 332.535V446.465L177.5 503.419L81.4382 446.465V332.535Z" stroke="black"/>
</g>
<line x1="81.7362" y1="447.575" x2="176.736" y2="388.575" stroke="black"/>
<line x1="82.2505" y1="333.567" x2="177.251" y2="388.567" stroke="black"/>
<line x1="177.26" y1="388.573" x2="274.26" y2="447.573" stroke="black"/>
<line x1="177.239" y1="388.337" x2="273.753" y2="333.565" stroke="black"/>
<line x1="177.5" y1="275" x2="177.5" y2="504" stroke="black"/>
<g filter="url(#filter1_d)">
<path d="M473.5 495L570.062 552.25V666.75L473.5 724L376.938 666.75V552.25L473.5 495Z" fill="white"/>
<path d="M377.438 552.535L473.5 495.581L569.562 552.535V666.465L473.5 723.419L377.438 666.465V552.535Z" stroke="black"/>
</g>
<line x1="377.736" y1="667.575" x2="472.736" y2="608.575" stroke="black"/>
<line x1="378.251" y1="553.567" x2="473.251" y2="608.567" stroke="black"/>
<line x1="473.26" y1="608.573" x2="570.26" y2="667.573" stroke="black"/>
<line x1="473.239" y1="608.337" x2="569.753" y2="553.565" stroke="black"/>
<line x1="473.5" y1="495" x2="473.5" y2="724" stroke="black"/>
<g filter="url(#filter2_d)">
<path d="M784.5 282L881.062 339.25V453.75L784.5 511L687.938 453.75V339.25L784.5 282Z" fill="white"/>
<path d="M688.438 339.535L784.5 282.581L880.562 339.535V453.465L784.5 510.419L688.438 453.465V339.535Z" stroke="black"/>
</g>
<line x1="688.736" y1="454.575" x2="783.736" y2="395.575" stroke="black"/>
<line x1="689.251" y1="340.567" x2="784.25" y2="395.567" stroke="black"/>
<line x1="784.26" y1="395.573" x2="881.26" y2="454.573" stroke="black"/>
<line x1="784.239" y1="395.337" x2="880.753" y2="340.565" stroke="black"/>
<line x1="784.5" y1="282" x2="784.5" y2="511" stroke="black"/>
<g filter="url(#filter3_d)">
<path d="M488.5 76L585.062 133.25V247.75L488.5 305L391.938 247.75V133.25L488.5 76Z" fill="white"/>
<path d="M392.438 133.535L488.5 76.5813L584.562 133.535V247.465L488.5 304.419L392.438 247.465V133.535Z" stroke="black"/>
</g>
<line x1="392.736" y1="248.575" x2="487.736" y2="189.575" stroke="black"/>
<line x1="393.251" y1="134.567" x2="488.251" y2="189.567" stroke="black"/>
<line x1="488.26" y1="189.573" x2="585.26" y2="248.573" stroke="black"/>
<line x1="488.239" y1="189.337" x2="584.753" y2="134.565" stroke="black"/>
<line x1="488.5" y1="76" x2="488.5" y2="305" stroke="black"/>
<line x1="288.74" y1="330.573" x2="380.74" y2="274.573" stroke="black"/>
<line x1="262.281" y1="497.586" x2="352.281" y2="558.586" stroke="black"/>
<line x1="591.281" y1="281.586" x2="681.281" y2="342.586" stroke="black"/>
<line x1="594.742" y1="558.572" x2="695.742" y2="497.572" stroke="black"/>
<path d="M158.312 791.562C163.031 791.562 167.484 791.984 171.672 792.828C175.859 793.672 179.516 794.844 182.641 796.344C185.797 797.844 188.297 799.641 190.141 801.734C191.984 803.828 192.906 806.125 192.906 808.625V816.219H180.719V812.188C180.719 810.844 180.203 809.562 179.172 808.344C178.141 807.125 176.656 806.047 174.719 805.109C172.812 804.172 170.469 803.438 167.688 802.906C164.938 802.344 161.812 802.062 158.312 802.062C154.938 802.062 151.875 802.328 149.125 802.859C146.375 803.391 144.016 804.109 142.047 805.016C140.078 805.922 138.562 807 137.5 808.25C136.438 809.469 135.906 810.781 135.906 812.188V842.562C135.906 843.938 136.438 845.25 137.5 846.5C138.562 847.719 140.078 848.797 142.047 849.734C144.016 850.641 146.375 851.359 149.125 851.891C151.875 852.422 154.938 852.688 158.312 852.688C161.812 852.688 164.938 852.422 167.688 851.891C170.469 851.328 172.812 850.578 174.719 849.641C176.656 848.703 178.141 847.625 179.172 846.406C180.203 845.188 180.719 843.906 180.719 842.562V835.812C177.812 835.812 175.203 835.891 172.891 836.047C170.609 836.203 168.656 836.359 167.031 836.516C165.125 836.734 163.438 836.969 161.969 837.219L163.188 825.875C167.969 825.5 172.469 825.312 176.688 825.312C182.344 825.312 187.75 825.594 192.906 826.156V846.125C192.906 848.625 191.984 850.922 190.141 853.016C188.297 855.078 185.797 856.859 182.641 858.359C179.516 859.859 175.859 861.031 171.672 861.875C167.484 862.688 163.031 863.094 158.312 863.094C153.594 863.094 149.141 862.688 144.953 861.875C140.766 861.031 137.094 859.859 133.938 858.359C130.812 856.859 128.328 855.078 126.484 853.016C124.641 850.922 123.719 848.625 123.719 846.125V808.625C123.719 806.125 124.641 803.828 126.484 801.734C128.328 799.641 130.812 797.844 133.938 796.344C137.094 794.844 140.766 793.672 144.953 792.828C149.141 791.984 153.594 791.562 158.312 791.562ZM238.75 809.562C240.344 809.562 242.266 809.641 244.516 809.797C246.766 809.953 249.094 810.234 251.5 810.641C253.938 811.016 256.344 811.562 258.719 812.281C261.094 812.969 263.219 813.859 265.094 814.953C267 816.047 268.531 817.375 269.688 818.938C270.875 820.469 271.469 822.281 271.469 824.375V840.219H217.75V852.219C221.531 852.75 225.172 853.125 228.672 853.344C232.172 853.531 235.531 853.625 238.75 853.625C243.656 853.625 248.094 853.438 252.062 853.062C256.062 852.688 259.516 852.266 262.422 851.797C265.766 851.266 268.781 850.656 271.469 849.969V860.375C265.531 861.312 259.797 861.984 254.266 862.391C248.766 862.797 243.594 863 238.75 863C233.875 863 229.453 862.875 225.484 862.625C221.516 862.344 218.109 862.031 215.266 861.688C211.953 861.312 208.969 860.875 206.312 860.375V824.375C206.312 822.281 206.828 820.469 207.859 818.938C208.891 817.375 210.266 816.047 211.984 814.953C213.703 813.859 215.672 812.969 217.891 812.281C220.141 811.562 222.469 811.016 224.875 810.641C227.281 810.234 229.672 809.953 232.047 809.797C234.453 809.641 236.688 809.562 238.75 809.562ZM217.75 832.719H259.844V827.281C259.844 826 259.531 824.906 258.906 824C258.281 823.062 257.438 822.281 256.375 821.656C255.344 821.031 254.125 820.531 252.719 820.156C251.344 819.75 249.906 819.453 248.406 819.266C246.906 819.047 245.391 818.906 243.859 818.844C242.359 818.781 240.938 818.75 239.594 818.75C238.188 818.75 236.672 818.781 235.047 818.844C233.453 818.906 231.844 819.047 230.219 819.266C228.594 819.484 227.031 819.797 225.531 820.203C224.031 820.578 222.703 821.094 221.547 821.75C220.391 822.375 219.469 823.156 218.781 824.094C218.094 825 217.75 826.094 217.75 827.375V832.719ZM287.406 824.281C287.281 823.281 286.984 822.438 286.516 821.75C286.078 821.062 285.594 820.5 285.062 820.062C284.469 819.531 283.812 819.094 283.094 818.75L288.344 809.562C289.5 809.969 290.656 810.516 291.812 811.203C292.781 811.797 293.797 812.562 294.859 813.5C295.953 814.406 296.906 815.531 297.719 816.875C299.281 815.875 300.875 814.938 302.5 814.062C304.156 813.156 305.875 812.375 307.656 811.719C309.469 811.062 311.359 810.547 313.328 810.172C315.328 809.766 317.469 809.562 319.75 809.562C324.562 809.562 328.688 809.969 332.125 810.781C335.594 811.562 338.422 812.75 340.609 814.344C342.828 815.906 344.453 817.859 345.484 820.203C346.516 822.547 347.031 825.281 347.031 828.406V863H334.75V831.312C334.75 829.562 334.516 828.062 334.047 826.812C333.578 825.531 332.938 824.453 332.125 823.578C331.344 822.672 330.422 821.938 329.359 821.375C328.297 820.812 327.188 820.391 326.031 820.109C324.906 819.797 323.75 819.594 322.562 819.5C321.375 819.375 320.25 819.312 319.188 819.312C317.188 819.312 315.281 819.453 313.469 819.734C311.656 820.016 309.938 820.406 308.312 820.906C306.688 821.375 305.156 821.938 303.719 822.594C302.281 823.25 300.938 823.938 299.688 824.656V863H287.406V824.281ZM394.562 809.562C399.188 809.562 403.188 809.953 406.562 810.734C409.938 811.484 412.719 812.609 414.906 814.109C417.125 815.609 418.75 817.484 419.781 819.734C420.844 821.953 421.375 824.531 421.375 827.469C421.375 829.281 421.156 830.922 420.719 832.391C420.312 833.828 419.734 835.125 418.984 836.281C418.234 837.406 417.312 838.406 416.219 839.281C415.156 840.156 413.969 840.906 412.656 841.531C413.812 843.5 414.781 845.516 415.562 847.578C416.375 849.641 417.031 851.625 417.531 853.531C418.062 855.438 418.438 857.219 418.656 858.875C418.906 860.5 419.031 861.875 419.031 863H407.031C407.031 861.094 406.875 859.297 406.562 857.609C406.25 855.922 405.812 854.312 405.25 852.781C404.719 851.25 404.078 849.797 403.328 848.422C402.609 847.047 401.844 845.719 401.031 844.438C399.719 844.594 398.359 844.703 396.953 844.766C395.578 844.797 394.188 844.812 392.781 844.812C389.344 844.812 385.953 844.703 382.609 844.484C379.266 844.266 376.125 844.031 373.188 843.781V863H361.938V791.656H373.188V815.844C376.062 813.906 379.297 812.375 382.891 811.25C386.516 810.125 390.406 809.562 394.562 809.562ZM394.281 818.75C391.969 818.75 389.797 818.906 387.766 819.219C385.734 819.531 383.844 819.969 382.094 820.531C380.344 821.062 378.719 821.703 377.219 822.453C375.75 823.172 374.406 823.938 373.188 824.75V836.844C373.875 836.875 374.828 836.953 376.047 837.078C377.266 837.172 378.641 837.297 380.172 837.453C381.734 837.578 383.391 837.703 385.141 837.828C386.922 837.922 388.719 837.969 390.531 837.969C392.875 837.969 395.172 837.844 397.422 837.594C399.672 837.312 401.688 836.812 403.469 836.094C405.25 835.375 406.672 834.391 407.734 833.141C408.828 831.891 409.375 830.281 409.375 828.312C409.375 826.031 408.891 824.25 407.922 822.969C406.953 821.656 405.719 820.703 404.219 820.109C402.719 819.484 401.078 819.109 399.297 818.984C397.547 818.828 395.875 818.75 394.281 818.75ZM446.969 863H435.062V809.562H446.969V863ZM441.062 791C443.375 791 445.203 791.391 446.547 792.172C447.891 792.922 448.562 794.125 448.562 795.781V798.125C448.562 799.625 447.891 800.703 446.547 801.359C445.203 802.016 443.375 802.344 441.062 802.344C438.844 802.344 437.047 802.016 435.672 801.359C434.328 800.703 433.656 799.625 433.656 798.125V795.781C433.656 794.125 434.328 792.922 435.672 792.172C437.047 791.391 438.844 791 441.062 791ZM536.312 791.562C541.125 791.562 545.656 791.984 549.906 792.828C554.156 793.672 557.875 794.844 561.062 796.344C564.25 797.844 566.766 799.656 568.609 801.781C570.453 803.875 571.375 806.188 571.375 808.719V846.031C571.375 848.562 570.453 850.891 568.609 853.016C566.766 855.109 564.25 856.906 561.062 858.406C557.875 859.906 554.156 861.078 549.906 861.922C545.656 862.766 541.125 863.188 536.312 863.188C533.625 863.188 530.875 863.094 528.062 862.906C525.25 862.688 522.516 862.422 519.859 862.109C517.234 861.766 514.766 861.375 512.453 860.938C510.141 860.5 508.156 860.031 506.5 859.531V795.219C508.156 794.719 510.141 794.25 512.453 793.812C514.766 793.375 517.234 793 519.859 792.688C522.516 792.344 525.25 792.078 528.062 791.891C530.875 791.672 533.625 791.562 536.312 791.562ZM536.5 802.156C533.656 802.156 531.188 802.25 529.094 802.438C527 802.594 525.203 802.812 523.703 803.094C522.203 803.344 520.953 803.625 519.953 803.938C518.984 804.219 518.188 804.469 517.562 804.688V850.062C518.188 850.312 518.984 850.578 519.953 850.859C520.953 851.141 522.203 851.422 523.703 851.703C525.203 851.953 527 852.172 529.094 852.359C531.188 852.516 533.656 852.594 536.5 852.594C540 852.594 543.141 852.312 545.922 851.75C548.734 851.188 551.094 850.438 553 849.5C554.938 848.562 556.422 847.484 557.453 846.266C558.484 845.016 559 843.719 559 842.375V812.375C559 811.031 558.484 809.75 557.453 808.531C556.422 807.281 554.938 806.188 553 805.25C551.094 804.312 548.734 803.562 545.922 803C543.141 802.438 540 802.156 536.5 802.156ZM637 843.875C636.219 843.188 635.25 842.516 634.094 841.859C632.938 841.203 631.516 840.625 629.828 840.125C628.141 839.594 626.125 839.172 623.781 838.859C621.469 838.516 618.75 838.344 615.625 838.344C612.844 838.344 610.203 838.406 607.703 838.531C605.234 838.625 603.062 838.938 601.188 839.469C599.312 839.969 597.828 840.781 596.734 841.906C595.641 843.031 595.094 844.594 595.094 846.594V852.594C597.844 853.031 600.875 853.391 604.188 853.672C607.5 853.953 611.188 854.094 615.25 854.094C618.5 854.094 621.953 853.984 625.609 853.766C629.297 853.516 633.094 853.031 637 852.312V843.875ZM615.906 809.562C617.469 809.562 619.359 809.641 621.578 809.797C623.797 809.953 626.109 810.234 628.516 810.641C630.922 811.016 633.297 811.547 635.641 812.234C638.016 812.891 640.141 813.766 642.016 814.859C643.922 815.922 645.453 817.203 646.609 818.703C647.766 820.203 648.344 821.969 648.344 824V860.281C645.719 860.812 642.75 861.266 639.438 861.641C636.594 861.984 633.203 862.297 629.266 862.578C625.328 862.859 620.938 863 616.094 863C611.281 863 606.156 862.797 600.719 862.391C595.312 861.984 589.656 861.281 583.75 860.281V843.406C583.75 841.594 584.172 840.016 585.016 838.672C585.891 837.297 587.078 836.125 588.578 835.156C590.078 834.188 591.844 833.391 593.875 832.766C595.906 832.141 598.094 831.641 600.438 831.266C602.781 830.891 605.219 830.641 607.75 830.516C610.281 830.359 612.812 830.281 615.344 830.281C619.188 830.281 622.453 830.531 625.141 831.031C627.859 831.5 630.109 832.016 631.891 832.578C633.953 833.266 635.656 834.031 637 834.875V827.281C637 826 636.688 824.906 636.062 824C635.438 823.062 634.594 822.281 633.531 821.656C632.469 821 631.25 820.484 629.875 820.109C628.5 819.703 627.062 819.391 625.562 819.172C624.062 818.953 622.531 818.812 620.969 818.75C619.438 818.688 618 818.656 616.656 818.656C615.25 818.656 613.75 818.703 612.156 818.797C610.562 818.859 608.969 819 607.375 819.219C605.812 819.438 604.297 819.75 602.828 820.156C601.391 820.531 600.109 821.047 598.984 821.703C597.859 822.359 596.953 823.156 596.266 824.094C595.609 825 595.281 826.094 595.281 827.375L583.656 824.375C583.656 822.281 584.172 820.469 585.203 818.938C586.234 817.375 587.594 816.047 589.281 814.953C591 813.859 592.969 812.969 595.188 812.281C597.406 811.562 599.703 811.016 602.078 810.641C604.484 810.234 606.875 809.953 609.25 809.797C611.625 809.641 613.844 809.562 615.906 809.562ZM710.312 809.188C715.125 809.188 719.469 809.594 723.344 810.406C727.219 811.188 730.516 812.375 733.234 813.969C735.953 815.562 738.047 817.547 739.516 819.922C740.984 822.266 741.719 825 741.719 828.125V863H729.438V830.938C729.438 828.344 728.875 826.234 727.75 824.609C726.625 822.953 725.141 821.656 723.297 820.719C721.453 819.781 719.359 819.141 717.016 818.797C714.672 818.453 712.281 818.281 709.844 818.281V863H698.5V818.281C696.469 818.281 694.516 818.453 692.641 818.797C690.797 819.109 689.047 819.547 687.391 820.109C685.734 820.672 684.172 821.312 682.703 822.031C681.234 822.75 679.875 823.5 678.625 824.281V863H666.344V824.281C666.219 823.281 665.922 822.438 665.453 821.75C665.016 821.062 664.531 820.5 664 820.062C663.406 819.531 662.75 819.094 662.031 818.75L667.281 809.562C668.438 809.969 669.578 810.5 670.703 811.156C671.672 811.719 672.688 812.453 673.75 813.359C674.812 814.266 675.75 815.375 676.562 816.688C679.094 815.156 681.531 813.906 683.875 812.938C686.219 811.938 688.688 811.172 691.281 810.641C693.875 810.078 696.703 809.703 699.766 809.516C702.828 809.297 706.344 809.188 710.312 809.188ZM810.719 843.875C809.938 843.188 808.969 842.516 807.812 841.859C806.656 841.203 805.234 840.625 803.547 840.125C801.859 839.594 799.844 839.172 797.5 838.859C795.188 838.516 792.469 838.344 789.344 838.344C786.562 838.344 783.922 838.406 781.422 838.531C778.953 838.625 776.781 838.938 774.906 839.469C773.031 839.969 771.547 840.781 770.453 841.906C769.359 843.031 768.812 844.594 768.812 846.594V852.594C771.562 853.031 774.594 853.391 777.906 853.672C781.219 853.953 784.906 854.094 788.969 854.094C792.219 854.094 795.672 853.984 799.328 853.766C803.016 853.516 806.812 853.031 810.719 852.312V843.875ZM789.625 809.562C791.188 809.562 793.078 809.641 795.297 809.797C797.516 809.953 799.828 810.234 802.234 810.641C804.641 811.016 807.016 811.547 809.359 812.234C811.734 812.891 813.859 813.766 815.734 814.859C817.641 815.922 819.172 817.203 820.328 818.703C821.484 820.203 822.062 821.969 822.062 824V860.281C819.438 860.812 816.469 861.266 813.156 861.641C810.312 861.984 806.922 862.297 802.984 862.578C799.047 862.859 794.656 863 789.812 863C785 863 779.875 862.797 774.438 862.391C769.031 861.984 763.375 861.281 757.469 860.281V843.406C757.469 841.594 757.891 840.016 758.734 838.672C759.609 837.297 760.797 836.125 762.297 835.156C763.797 834.188 765.562 833.391 767.594 832.766C769.625 832.141 771.812 831.641 774.156 831.266C776.5 830.891 778.938 830.641 781.469 830.516C784 830.359 786.531 830.281 789.062 830.281C792.906 830.281 796.172 830.531 798.859 831.031C801.578 831.5 803.828 832.016 805.609 832.578C807.672 833.266 809.375 834.031 810.719 834.875V827.281C810.719 826 810.406 824.906 809.781 824C809.156 823.062 808.312 822.281 807.25 821.656C806.188 821 804.969 820.484 803.594 820.109C802.219 819.703 800.781 819.391 799.281 819.172C797.781 818.953 796.25 818.812 794.688 818.75C793.156 818.688 791.719 818.656 790.375 818.656C788.969 818.656 787.469 818.703 785.875 818.797C784.281 818.859 782.688 819 781.094 819.219C779.531 819.438 778.016 819.75 776.547 820.156C775.109 820.531 773.828 821.047 772.703 821.703C771.578 822.359 770.672 823.156 769.984 824.094C769.328 825 769 826.094 769 827.375L757.375 824.375C757.375 822.281 757.891 820.469 758.922 818.938C759.953 817.375 761.312 816.047 763 814.953C764.719 813.859 766.688 812.969 768.906 812.281C771.125 811.562 773.422 811.016 775.797 810.641C778.203 810.234 780.594 809.953 782.969 809.797C785.344 809.641 787.562 809.562 789.625 809.562Z" fill="black"/>
<line x1="66" y1="896.5" x2="871" y2="896.5" stroke="black"/>
<defs>
<filter id="filter0_d" x="0.93811" y="199" width="353.124" height="389" filterUnits="userSpaceOnUse" color-interpolation-filters="sRGB">
<feFlood flood-opacity="0" result="BackgroundImageFix"/>
<feColorMatrix in="SourceAlpha" type="matrix" values="0 0 0 0 0 0 0 0 0 0 0 0 0 0 0 0 0 0 127 0" result="hardAlpha"/>
<feOffset dy="4"/>
<feGaussianBlur stdDeviation="40"/>
<feComposite in2="hardAlpha" operator="out"/>
<feColorMatrix type="matrix" values="0 0 0 0 0 0 0 0 0 0 0 0 0 0 0 0 0 0 0.25 0"/>
<feBlend mode="normal" in2="BackgroundImageFix" result="effect1_dropShadow"/>
<feBlend mode="normal" in="SourceGraphic" in2="effect1_dropShadow" result="shape"/>
</filter>
<filter id="filter1_d" x="296.938" y="419" width="353.124" height="389" filterUnits="userSpaceOnUse" color-interpolation-filters="sRGB">
<feFlood flood-opacity="0" result="BackgroundImageFix"/>
<feColorMatrix in="SourceAlpha" type="matrix" values="0 0 0 0 0 0 0 0 0 0 0 0 0 0 0 0 0 0 127 0" result="hardAlpha"/>
<feOffset dy="4"/>
<feGaussianBlur stdDeviation="40"/>
<feComposite in2="hardAlpha" operator="out"/>
<feColorMatrix type="matrix" values="0 0 0 0 0 0 0 0 0 0 0 0 0 0 0 0 0 0 0.25 0"/>
<feBlend mode="normal" in2="BackgroundImageFix" result="effect1_dropShadow"/>
<feBlend mode="normal" in="SourceGraphic" in2="effect1_dropShadow" result="shape"/>
</filter>
<filter id="filter2_d" x="607.938" y="206" width="353.124" height="389" filterUnits="userSpaceOnUse" color-interpolation-filters="sRGB">
<feFlood flood-opacity="0" result="BackgroundImageFix"/>
<feColorMatrix in="SourceAlpha" type="matrix" values="0 0 0 0 0 0 0 0 0 0 0 0 0 0 0 0 0 0 127 0" result="hardAlpha"/>
<feOffset dy="4"/>
<feGaussianBlur stdDeviation="40"/>
<feComposite in2="hardAlpha" operator="out"/>
<feColorMatrix type="matrix" values="0 0 0 0 0 0 0 0 0 0 0 0 0 0 0 0 0 0 0.25 0"/>
<feBlend mode="normal" in2="BackgroundImageFix" result="effect1_dropShadow"/>
<feBlend mode="normal" in="SourceGraphic" in2="effect1_dropShadow" result="shape"/>
</filter>
<filter id="filter3_d" x="311.938" y="0" width="353.124" height="389" filterUnits="userSpaceOnUse" color-interpolation-filters="sRGB">
<feFlood flood-opacity="0" result="BackgroundImageFix"/>
<feColorMatrix in="SourceAlpha" type="matrix" values="0 0 0 0 0 0 0 0 0 0 0 0 0 0 0 0 0 0 127 0" result="hardAlpha"/>
<feOffset dy="4"/>
<feGaussianBlur stdDeviation="40"/>
<feComposite in2="hardAlpha" operator="out"/>
<feColorMatrix type="matrix" values="0 0 0 0 0 0 0 0 0 0 0 0 0 0 0 0 0 0 0.25 0"/>
<feBlend mode="normal" in2="BackgroundImageFix" result="effect1_dropShadow"/>
<feBlend mode="normal" in="SourceGraphic" in2="effect1_dropShadow" result="shape"/>
</filter>
</defs>
</svg>
