<svg width="500" height="300" fill="none" xmlns="http://www.w3.org/2000/svg"><path d="M230.993 136.439l-.007.004c.004.003.007.003.007-.004zm18.53-15.277l-18.532 15.276c7.497-2.687 17.681-11.457 18.532-15.276z" fill="#6A737D"/><path d="M227.598 117.062c-3.334 3.471 3.152 19.222 3.387 19.381l.007-.003 18.53-15.279s-19.236-12.585-21.924-4.099zm36.057 55.607l17.479-16.468c-7.304 3.176-16.888 12.601-17.479 16.468z" fill="#6A737D"/><path d="M281.141 156.195l-.008.006-17.479 16.468s20.028 11.289 22.148 2.643c3.09-3.677-4.38-18.897-4.661-19.117" fill="#6A737D"/><path d="M281.133 156.201s.007-.003.01-.006c-.007-.003-.01-.003-.01.006z" fill="#6A737D"/><path d="M220.418 132.381l26.366-24.721-43.836-58.985-2.374-1.176-37.313 33.518 55.048 51.48 2.109-.116z" fill="#B6BFC4"/><path d="M164.636 81.866l38.315-33.19 43.832 58.985-26.366 24.722-55.781-50.517z" fill="#E1E4E8"/><path d="M237.823 125.611l-68.482-76.844 6.205-5.53 64.675 80.238-2.398 2.136zm-10.551 12.652l-76.078-70.641 5.647-3.874 72.617 72.162-2.186 2.353zm21.327-23.083l-59.498-76.843 2.54-1.967 57.829 77.057-.871 1.753z" fill="#F6F8FA"/><path d="M164.097 84.843l42.87-35.398 1.188 1.385-43.033 34.463-1.025-.45zm82.472 6.507l-35.337 31.654 1.723.682 34.251-31.684-.637-.652zm-18.218-16.855l-38.601 31.702 1.879.682 37.416-31.733-.694-.651z" fill="#F6F8FA"/><path d="M231.48 130.825c.21.419.495.797.841 1.113a3.63 3.63 0 01.32-.908 20.996 20.996 0 012.051-3.367c-2.983-3.776-4.944-8.41-5.65-13.222-1.653 6.589.724 12.954 2.438 16.384z" fill="#B6BFC4"/><path d="M249.954 117.908a3.83 3.83 0 00-1.725-2.353c-3.475-2.118-9.424-5.306-13.82-5.34 4.486 2.046 8.713 4.709 12.507 8.064 1.017-.325 2.04-.485 3.038-.371z" fill="#D1D5DA"/><path d="M229.196 113.877a14.23 14.23 0 00-.151.564c.703 4.811 2.664 9.445 5.647 13.221 1.711-2.289 3.816-4.181 6.229-6.09 1.766-1.192 3.862-2.609 5.995-3.294-3.795-3.352-8.022-6.015-12.507-8.064-2.462-.017-4.438.956-5.213 3.663" fill="#E1E4E8"/><path d="M232.321 131.937c6.166-.007 18.272-13.865 17.633-14.028-5.244-1.346-16.547 9.141-17.633 14.028z" fill="#959DA5"/><path d="M311.523 242.862l35.138-38.462-55.889-47.316h-2.112l-27.117 22.95 48.297 63.483 1.683-.655z" fill="#B6BFC4"/><path d="M290.772 157.085l-27.394 23.799 48.146 61.98 35.138-38.463-55.89-47.316z" fill="#E1E4E8"/><path d="M270.456 166.719l70.141 74.632-5.868 5.985-66.321-78.545 2.048-2.072zm8.879-12.059l78.105 66.361-5.439 4.19-74.509-68.3 1.843-2.251zm-18.07 22.137l60.056 75.79-2.416 2.115-58.358-76.25.718-1.655z" fill="#F6F8FA"/><path d="M345.696 200.373l-42.945 40.312-1.246-1.451 42.586-40.575 1.605 1.714z" fill="#E1E4E8"/><path d="M263.732 199.18l36.664-36.384-1.209-1.02-36.044 36.797.589.607zm17.277 16.071l39.754-36.614-1.4-.697-39.029 36.673.675.638z" fill="#F6F8FA"/><path d="M271.123 171.261c-1.101.522-2.218 1.026-3.331 1.536a5.559 5.559 0 002.749 2.6c4.425 1.943 10.739 4.139 14.799 3.095-5.505-1.3-10.766-3.291-14.217-7.231" fill="#D1D5DA"/><path d="M283.44 161.159c-2.694 5.104-7.358 7.769-12.317 10.103 3.451 3.937 8.711 5.928 14.217 7.231 1.843-.473 3.222-1.614 3.746-3.75.043-.168.076-.335.113-.501a37.575 37.575 0 00-5.458-13.695 9.396 9.396 0 01-.301.612" fill="#E1E4E8"/><path d="M286.435 159.584a5.58 5.58 0 00-1.894-2.012c-.069 1.001-.368 2.033-.803 2.974a37.529 37.529 0 015.461 13.696c1.236-5.802-.851-11.208-2.764-14.658" fill="#6A737D"/><path d="M284.541 157.572c-3.134-2.101-19.693 12.862-16.748 15.225 4.359-2.001 16.151-6.788 16.748-15.225zm28.008-5.813c.06.118.123.229.196.341.763 1.125 2.202 1.608 3.276.914l6.591-4.239a.701.701 0 00.067-.042c1.776-1.182 2.356-3.002 1.623-4.389-2.769 2.416-7.041 2.977-10.025 5.466a7.27 7.27 0 00-1.728 1.949" fill="#959DA5"/><path d="M325.408 138.031l-9.253 12.992s5.823 4.957 9.856-.458c4.033-5.415 6.899-8.89 6.899-8.89l-.015-.1-4.389-.721-3.098-2.823z" fill="#DCB556"/><path d="M323.213 148.071l1.786 1.514 1.403-1.388-1.798-1.409-1.391 1.283zm3.188.125l1.973 1.547 1.327-1.417-1.981-1.436-1.319 1.306z" fill="#6A6300"/><path d="M322.962 145.505l1.642 1.285 1.312-1.213-1.653-1.197-1.301 1.125z" fill="#6A6300"/><path d="M327.529 135.055l-2.121 2.974 3.098 2.824 4.39.721c-.1-.649-.688-4.316-1.484-5.366l-3.883-1.153z" fill="#923D6E"/><path d="M323.063 143.105c-1.894-1.095-4.546-.443-5.97 1.095l-4.271 4.613c-.007.009-.016.015-.025.024-.663.742-.742 1.933-.247 2.923a7.284 7.284 0 011.728-1.949c2.984-2.488 7.253-3.052 10.022-5.466-.254-.479-.664-.908-1.237-1.24z" fill="#B7B7B7"/><path d="M238.483 127.947l.48 1.484a.58.58 0 00.117.217c.383.456 1.391.296 2.585-.32a46.724 46.724 0 01-2.422-3.33c-.603.791-.902 1.511-.76 1.949zm7.312-2.307c.5-.808.66-1.503.355-1.871 0 0 0-.002-.002-.002a.597.597 0 00-.194-.155l-1.387-.729c-.299-.155-.785-.109-1.373.102.926.821 1.81 1.689 2.601 2.655" fill="#6A737D"/><path d="M243.194 122.984c-.724.259-1.601.775-2.452 1.484a9.748 9.748 0 00-1.499 1.533 47.771 47.771 0 002.422 3.327c.717-.373 1.39-.826 2.006-1.349.932-.772 1.666-1.601 2.124-2.34-.791-.962-1.674-1.835-2.601-2.655" fill="#959DA5"/><path d="M246.151 123.771c-.582-.703-2.64.042-4.595 1.662-1.951 1.623-3.064 3.508-2.479 4.211.585.703 2.639-.039 4.594-1.662 1.955-1.623 3.062-3.508 2.48-4.211zm31.674 38.514l-.577-1.753a.675.675 0 00-.1-.187c-.005-.009-.011-.012-.014-.021-.245-.293-.736-.335-1.37-.169.618 1.155 1.198 2.329 1.668 3.547.35-.576.501-1.083.393-1.417z" fill="#6A737D"/><path d="M275.765 160.155c-.522.135-1.14.41-1.792.805-.467.281-.953.63-1.433 1.026-.869.724-1.571 1.496-2.03 2.193a21.01 21.01 0 003.403 2.709 9.72 9.72 0 001.656-1.122c.82-.682 1.469-1.415 1.864-2.064-.473-1.218-1.049-2.392-1.668-3.547z" fill="#959DA5"/><path d="M270.042 166.173c.006.009.012.019.018.024a.693.693 0 00.133.121l1.493 1.002c.407.271 1.252.09 2.227-.432a21.378 21.378 0 01-3.403-2.708c-.561.856-.77 1.598-.468 1.993" fill="#6A737D"/><path d="M277.132 160.323c-.582-.703-2.639.042-4.591 1.665-1.958 1.623-3.066 3.506-2.483 4.208.585.706 2.639-.039 4.594-1.662 1.955-1.623 3.062-3.508 2.48-4.211" fill="#6A737D"/><path d="M268.383 159.327l3.925 4.797a6.217 6.217 0 001.17-.558 362.377 362.377 0 01-4.193-5.138c-.302.298-.6.597-.902.899z" fill="#959DA5"/><path d="M274.767 162.494l-4.16-5.342c-.447.418-.887.843-1.321 1.275a332.852 332.852 0 004.193 5.138 5.756 5.756 0 001.288-1.071" fill="#959DA5"/><path d="M260.535 119.578l-8.637 4.365-16.582 18.412 10.546-7.534 14.673-15.243z" fill="#E1E4E8"/><path d="M260.535 119.578l-14.674 15.243-10.546 7.533 25.445 25.111 8.538-4.018 14.061-17.744-22.824-26.125z" fill="#D1D5DA"/><path d="M241.689 119.276c3.18 3.714 6.444 7.355 9.738 10.975 3.294 3.617 6.619 7.21 9.934 10.815 3.315 3.605 6.622 7.222 9.877 10.884 3.255 3.665 6.464 7.376 9.554 11.189l-.83.676c-3.08-3.796-6.278-7.497-9.524-11.153-3.249-3.656-6.552-7.267-9.864-10.872-3.316-3.602-6.64-7.195-9.937-10.821-3.298-3.62-6.57-7.27-9.762-10.998l.814-.695z" fill="#959DA5"/><path d="M242.982 118.095c12.6 13.313 27.838 27.699 39.476 41.869" stroke="#F2AA64" stroke-width="3.425" stroke-miterlimit="10"/><path d="M235.369 142.724l23.717 28.079 10.531-7.597-23.545-28.57-10.703 8.088z" fill="#B6BFC4"/><path clip-rule="evenodd" d="M258.904 162.102c2.639-2.06 1.774-7.586-1.931-12.334-3.704-4.748-8.855-6.931-11.494-4.872-2.639 2.06-1.774 7.587 1.931 12.335 3.704 4.747 8.854 6.93 11.494 4.871z" stroke="#959DA5" stroke-width=".644" stroke-miterlimit="10"/><path d="M248.611 167.832l9.485-6.637c1.568-2.036.977-4.308-3.253-10.576-4.232-6.269-9.092-4.39-9.092-4.39l-5.771 11.036c-3.025 5.782 8.631 10.567 8.631 10.567" fill="#444D56"/><path d="M248.611 167.832l9.485-6.637c1.568-2.036.977-4.308-3.253-10.576-4.232-6.269-9.092-4.39-9.092-4.39l-5.771 11.036c-3.025 5.782 8.631 10.567 8.631 10.567" fill="#959DA5"/><path d="M242.922 145.217c2.223.07 4.462.637 6.404 1.759 1.952 1.11 3.569 2.703 4.851 4.477 2.567 3.587 3.973 7.768 4.797 11.991l-1.472.269c-.785-4.042-2.161-8.067-4.538-11.38-1.188-1.643-2.654-3.073-4.383-4.057-1.719-.989-3.686-1.49-5.686-1.559l.027-1.5z" fill="#6A737D"/><path d="M241.397 150.738c1.989-.003 3.943.628 5.593 1.65 1.66 1.02 3.051 2.389 4.2 3.907 2.241 3.061 3.81 6.702 3.732 10.663l-1.497-.078c.081-3.4-1.36-6.89-3.43-9.68-2.069-2.785-5.18-4.984-8.598-4.963v-1.499z" fill="#6A737D"/><path d="M240.649 153.158c1.557.576 3.096 1.327 4.465 2.347 1.376 1.02 2.522 2.317 3.463 3.704 1.883 2.797 3.053 5.895 4.1 8.978l-1.424.474c-1.019-3.023-2.175-6.027-3.912-8.61-1.699-2.624-4.242-4.444-7.211-5.484l.519-1.409z" fill="#6A737D"/><path d="M219.269 203.908c2.037.009 3.708-1.689 3.714-3.88.003-1.824-1.137-3.402-2.715-3.957l-1.306-.455a3.69 3.69 0 00-1.304-.209c-2.187.036-3.794 1.97-3.62 4.215.134 1.704 1.259 3.11 2.722 3.622l1.306.459a3.65 3.65 0 001.203.205zm-1.477-2.093c-.031 0-.061 0-.091-.003a2.352 2.352 0 01-.835-2.622 2.349 2.349 0 012.319-1.611c.296.218.536.502.702.829a2.351 2.351 0 01-2.095 3.407" fill="#D1D5DA"/><path d="M220.984 197.221l1.403 1.587c8.865-7.147 5.864-7.557 1.553-16.465l-.847-.978-.631 1.231c4.211 8.709 4.989 7.765-2.326 13.647l.848.978z" fill="#D1D5DA"/><path d="M237.273 167.007c-3.366-3.569-6.787-6.824-10.054-9.617-1.701-.398-3.418-.507-5.023-.298-3.077.367-6.226 1.444-9.119 3.028 6.066 9.041 16.824 20.371 25.874 27.561 1.834-4.354 3.364-8.827 4.724-13.368a128.697 128.697 0 00-6.402-7.306" fill="#E1E4E8"/><path d="M227.22 157.388c-8.184-7.001-15.4-11.119-18.383-10.06-1.563 2.244.395 7.059 4.241 12.791 2.894-1.581 6.04-2.661 9.117-3.029 1.604-.208 3.321-.1 5.025.298zm16.455 16.925c-1.36 4.541-2.89 9.014-4.724 13.367 6.353 5.044 11.862 8.049 14.32 6.784 2.242-2.283-1.768-10.477-9.596-20.151zm-16.416-10.243a13.76 13.76 0 00-3.337-.142l-1.749 2.235 2.226 2.281a74.622 74.622 0 012.86-4.374" fill="#D1D5DA"/><path d="M230.785 165.098a15.143 15.143 0 00-3.526-1.029 74.982 74.982 0 00-2.86 4.375l1.545 1.583a87.824 87.824 0 014.841-4.929z" fill="#E1E4E8"/><path d="M230.785 165.098a87.824 87.824 0 00-4.841 4.929l11.023 11.301 2.335-1.503c.241-2.425-.025-4.862-1.044-7.315-1.259-3.324-4.094-5.967-7.473-7.412" fill="#D1D5DA"/><path d="M227.258 164.07a75.049 75.049 0 015.587-7.007c-1.077-.504-2.07-.797-2.905-.839l-6.018 7.704a13.75 13.75 0 013.336.142z" fill="#959DA5"/><path d="M232.845 157.061a75.45 75.45 0 00-5.586 7.008c1.209.196 2.398.546 3.526 1.029 1.961-1.865 3.991-3.675 6.015-5.482-1.367-1.11-2.718-1.979-3.955-2.555z" fill="#959DA5"/><path d="M246.577 175.147c-1.523-6.682-5.704-12.209-9.777-15.53-2.024 1.807-4.051 3.617-6.015 5.481 3.379 1.445 6.214 4.088 7.472 7.412 1.023 2.45 1.285 4.89 1.044 7.315l7.276-4.678z" fill="#959DA5"/><path d="M233.943 146.661c-6.112.917-12.435 1.321-18.589 2.283a42.967 42.967 0 013.626 2.157c5.684-.727 11.427-1.213 16.806-2.881a33.423 33.423 0 00-1.843-1.559" fill="#6A737D"/><path d="M228.95 144.431c-21.252 2.639-19.669 2.404-19.817 2.546a2.316 2.316 0 00-.295.35c1.378-.489 3.656.127 6.516 1.62 6.157-.963 12.477-1.37 18.589-2.287-2.073-1.62-3.829-2.495-4.993-2.229" fill="#B6BFC4"/><path d="M235.787 148.221c-5.378 1.668-11.125 2.154-16.805 2.881 5.348 3.514 11.916 9.146 18.293 15.907a127.495 127.495 0 016.83 7.84 229.256 229.256 0 005.288-10.523c-4.127-5.945-9.309-12.217-13.606-16.105z" fill="#E1E4E8"/><path d="M250.152 165.437c-.25-.368-.504-.736-.76-1.11a229.75 229.75 0 01-5.289 10.522c.405.507.8 1.007 1.186 1.505a96.478 96.478 0 012.582 3.518c1.723-3.463 3.279-6.987 4.767-10.568a94.415 94.415 0 00-2.486-3.867" fill="#B6BFC4"/><path d="M254.21 172.036c-1.349 3.898-2.543 7.885-3.726 11.865 3.083 5.179 4.229 9.092 2.785 10.563.166-.086.322-.186.461-.307 1.819-1.973 2.92-15.4 2.917-15.629-.009-1.391-.929-3.705-2.437-6.492" fill="#6A737D"/><path d="M252.637 169.305c-1.488 3.581-3.044 7.101-4.767 10.567a66.024 66.024 0 012.616 4.028c1.182-3.976 2.377-7.968 3.723-11.865a64.74 64.74 0 00-1.572-2.73" fill="#E1E4E8"/><path d="M231.28 172.304c4.027 4.157 6.54 8.166 5.687 9.023-.857.86-4.791-1.738-8.851-5.87-4.142-4.215-6.833-8.408-5.943-9.292.893-.884 5.005 1.901 9.107 6.139z" fill="#959DA5"/><path d="M205.723 202.164c2.224.673 4.523-.317 5.244-2.202.473-1.237.174-2.612-.691-3.665l21.445-20.366c-.521-1.285-1.237-2.057-1.692-2.453l-.824-.714c-.268-.23-1.65-.61-1.65-.61l-19.599 22.294a6.432 6.432 0 00-.438-.203c-2.338-.932-4.941.025-5.692 2.154-.555 1.581.109 3.273 1.475 4.314l.881.667c.443.34.965.609 1.541.784zm.429-1.87a2.704 2.704 0 01-1.168-.275 2.448 2.448 0 01-.606-1.472c-.072-1.334 1.004-2.402 2.398-2.386.404.003.802.098 1.164.278.359.411.569.93.598 1.474.066 1.322-1.002 2.387-2.386 2.381" fill="#D1D5DA"/><path d="M220.032 202.276c1.306.009 2.323-.986 2.263-2.266-.064-1.327-1.259-2.44-2.652-2.437-1.39.003-2.38 1.11-2.227 2.426.152 1.267 1.316 2.268 2.616 2.277zm-4.06-2.211c-.278-2.269 1.321-4.211 3.595-4.226 2.287-.016 4.215 1.924 4.287 4.217.07 2.178-1.577 3.861-3.665 3.852-2.075-.006-3.955-1.686-4.217-3.843zm-6.68-.656c-.453 1.183-1.841 1.82-3.147 1.419-1.36-.42-2.133-1.795-1.672-3.072.468-1.29 1.986-1.912 3.334-1.399 1.297.494 1.94 1.858 1.485 3.052zm22.431-23.478c-.824-2.03-2.135-2.785-2.135-2.785l-20.758 21.986a5.488 5.488 0 00-.44-.202c-2.327-.929-4.927.024-5.675 2.151-.739 2.097.667 4.377 3.007 5.083 2.224.673 4.522-.317 5.244-2.202.473-1.237.175-2.612-.688-3.666l21.445-20.365z" fill="#E1E4E8"/><path d="M223.625 183.384l.615-1.252c4.703 9.188 7.747 9.656-1.035 16.703l-1.499-1.605c7.289-5.819 6.525-4.878 1.919-13.846" fill="#E1E4E8"/><path d="M333.288 168.171l-.515-1.817-1.88-.934-1.225.636-1.36.875.516 1.813 1.876.938 1.228-.636 1.36-.876v.001zm-2.467-.709l.063.236-.109-.058-.065-.232.111.054z" fill="#6A737D"/><path d="M330.775 167.64l.875.441.637-.41-.242-.848-.875-.435-.636.408.241.844zm-.724.468l-.518-1.813 1.36-.875 1.88.935.515 1.817-1.36.874-1.877-.938z" fill="#D1D5DA"/><path d="M317.286 141.156l10.244-6.099c-.527 2.109-.153 4.217.978 5.797l-12.353 10.17c-.752-2.111-.902-7.231 1.131-9.868z" fill="#F2AA64"/><path d="M324.822 138.451l.229 2.479-2.121 1.62-.093-2.616 1.985-1.483zm-1.892 4.1l.112 3.005-2.338 1.831.051-3.177 2.175-1.659zm-.02-4.755l-.073 2.136-2.033 1.52.036-2.413 2.07-1.243z" fill="#6A6300"/><path d="M317.368 145.176s2.407-.92 3.59-1.424a25.42 25.42 0 01.528-3.903c-1.297.703-3.593 2.464-3.593 2.464l-.525 2.863z" fill="#767676"/><path d="M317.878 144.562a143.09 143.09 0 002.706-1.074c.063-.963.181-1.91.353-2.857-1.047.67-2.302 1.608-2.688 1.904l-.371 2.027z" fill="#000"/><path d="M318.364 142.685l.202 1.065.344-.899.302.38.253-.633.401.458.441-.751.202-.564.157.446" fill="#000"/><path d="M318.364 142.685l.202 1.065.344-.899.302.38.253-.633.401.458.441-.751.202-.564.157.446" stroke="#37B9DF" stroke-width=".217" stroke-miterlimit="10"/><path d="M322.703 151.778c-1.538 1.822-3.203 3.81-2.539 6.591.075.314.108.601.108.872 0 1.704-1.396 2.534-2.805 2.534-1.442 0-2.899-.869-2.899-2.555 0-2.151 6.042-9.882 6.645-10.637.184-.232.269-.407.275-.407.458 0 2.881 1.554 2.661 1.931 0 .024-.99 1.131-1.446 1.671z" fill="#000"/><path d="M317.798 147.357c3.03 1.171 5.789 3.144 7.754 5.753l-.511.393c-1.9-2.52-4.536-4.408-7.478-5.548l.235-.598zm-.78 3.027c2.431 1.005 4.703 2.311 7.173 2.975l-.166.618c-2.582-.697-4.871-2.021-7.252-2.998l.245-.595zm-.477 2.223c1.858.408 3.565 1.21 5.273 1.871l-.23.6c-1.74-.672-3.411-1.457-5.182-1.843l.139-.628zm-.655 1.093c2.001.513 4.106 1.086 5.871 2.332l-.362.531c-1.665-1.174-3.659-1.722-5.672-2.244l.163-.619zm-2.642 4.843c.531-.745 1.303-1.36 2.202-1.626.896-.28 1.856-.229 2.724.015 1.738.504 3.264 1.663 4.148 3.264l-.567.299c-.775-1.412-2.196-2.504-3.753-2.944-1.559-.489-3.324-.003-4.232 1.367l-.522-.375z" fill="#6A6A6A"/><path d="M296.717 138.077l1.101 1.68 1.52 1.861-1.101-1.677-1.52-1.864z" fill="#9B9B9B"/><path d="M300.701 138.115l-.097.149.097-.149zm-.507.238l.41-.087-.41.087z" fill="#B7B7B7"/><path d="M299.185 136.526l1.481-.316.709.869-.675 1.037-.097.148-.41.088-1.071.232-.709-.869.772-1.189zm2.226 2.733l1.66-2.545-1.521-1.864-3.176.681-1.656 2.546 1.52 1.864 3.173-.682z" fill="#D1D5DA"/><path d="M298.237 139.941l1.102 1.677 3.176-.682-1.102-1.676-3.176.681z" fill="#6A737D"/><path d="M303.071 136.714l-1.658 2.545 1.101 1.678 1.658-2.546-1.101-1.677z" fill="#959DA5"/><path d="M301.375 137.077l-.706-.869.428 1.295.278-.426z" fill="#9B9B9B"/><path d="M298.414 137.714l.706.869 1.074-.23.093-.148-1.1-1.68-.773 1.189z" fill="#959DA5"/><path d="M301.097 137.503l-.431-1.294-1.481.317 1.101 1.677.413-.087.398-.613z" fill="#6A737D"/><path d="M333.12 136.961c-1.155 1.876-2.699 1.904-4.368 1.985.121.293.296.589.528.863.784.929 1.901 1.285 2.51.799l2.54-2.033a.065.065 0 00.018-.015c.468-.395.477-1.194.085-1.976-.558-.181-1.072-.105-1.313.377" fill="#959DA5"/><path d="M333.12 136.961c.241-.482.755-.558 1.313-.377a3.326 3.326 0 00-.432-.646c-.787-.932-1.903-1.288-2.51-.802l-2.54 2.033a.065.065 0 00-.018.015c-.425.36-.47 1.053-.181 1.762 1.668-.081 3.213-.109 4.368-1.985" fill="#000"/><path d="M334.001 135.938c.797.941.947 2.115.347 2.624-.603.507-1.735.154-2.528-.787-.794-.942-.947-2.115-.347-2.625.603-.507 1.735-.153 2.528.788z" fill="#767676"/><path d="M332.454 136.287c.003.124.066.355.275.6.205.244.422.347.543.371l5.231-4.105a.962.962 0 00-.16-.447 1.34 1.34 0 00-.115-.154c-.205-.244-.425-.35-.546-.371l-5.228 4.106z" fill="#7E6AA8"/><path d="M333.014 134.147c-.021.608-.377 1.381.009 1.812.449.353 1.194.16 1.791.027 1.246-.341 2.459-.869 3.594-1.487l.108.184c-1.164.634-2.368 1.158-3.65 1.512-.624.114-1.348.386-1.994-.082-.51-.663-.067-1.339-.072-1.979l.214.013z" fill="#A5D6FF"/><path d="M332.554 134.702c-.021.609-.377 1.381.009 1.813.45.352 1.195.16 1.792.027 1.246-.341 2.459-.869 3.593-1.488l.109.184c-1.164.634-2.368 1.159-3.651 1.512-.624.114-1.348.386-1.994-.082-.509-.663-.066-1.339-.072-1.978l.214.012z" fill="#A5D6FF"/><path d="M334.145 134.183c-.19.281-.395.591-.434.896-.055.311.362.344.687.296.68-.085 1.352-.335 2.009-.577 1.316-.509 2.589-1.115 3.856-1.753l.094.194c-1.261.633-2.546 1.246-3.873 1.758-.667.245-1.337.498-2.064.589-.278.063-.966.042-.923-.522.057-.408.277-.703.474-1.005l.174.124z" fill="#A5D6FF"/><path d="M335.055 132.309c-.301.685-.769 1.43-.492 2.085.139.286.601.12.948.073.371-.082.739-.194 1.107-.305 1.466-.462 2.893-1.032 4.332-1.587l.075.202c-1.433.552-2.871 1.125-4.344 1.59-.371.111-.739.226-1.122.307-.338.024-.86.296-1.182-.171-.344-.86.211-1.608.485-2.278l.193.084z" fill="#A5D6FF"/><path d="M337.957 132.78c-.204-.245-.271-.477-.274-.601.121.024.338.126.546.371.206.244.272.479.275.603-.121-.024-.341-.126-.547-.373z" fill="#222112"/><path d="M315.924 152.765l5.564-4.589s-2.704 3.91-3.624 6.725c-.919 2.811-.232 3.975-.971 4.751-.739.778-2.259 1.261-2.293 0-.033-1.261 1.324-6.887 1.324-6.887" fill="#B98B3E"/><path d="M337.091 132.72a21.38 21.38 0 00-3.074 2.495c.093.13.184.26.29.383 1.077 1.259 2.579 1.778 3.481 1.249.009-.009.021-.014.033-.021l4.547-2.661a.935.935 0 00.12-.081c.021-.015.043-.033.067-.048.931-.778.859-2.428-.085-3.943a6.506 6.506 0 00-.543-.745c-.7-.815-1.539-1.381-2.347-1.647-1.762 2.48.211 3.023-2.489 5.019" fill="#959DA5"/><path d="M337.413 127.895c-.021.015-.042.033-.064.051-.014.013-.03.028-.048.039l-3.532 3.898c-.752.67-.622 2.088.25 3.334a20.422 20.422 0 013.074-2.495c2.697-2.001.727-2.54 2.489-5.02-.824-.271-1.608-.226-2.169.193z" fill="#D1D5DA"/><path d="M337.975 132.631c-1.436-1.681-1.716-3.778-.628-4.685 1.089-.908 3.141-.278 4.58 1.403 1.433 1.68 1.716 3.78.627 4.685-1.091.908-3.14.277-4.579-1.403z" fill="#923D6E"/><path d="M341.885 130.065c-.015-.024-.024-.049-.043-.073a5.168 5.168 0 00-1.004-1.149 38.287 38.287 0 00-2.784 2.431c.114.266.253.531.425.797 1.122-.718 2.269-1.37 3.406-2.006zm.762 2.385c0-.462-.117-.99-.334-1.527a113.222 113.222 0 01-3.18 1.982c.335.35.688.618 1.041.814.815-.349 1.638-.69 2.462-1.047.006-.072.011-.144.011-.222z" fill="#7E6AA8"/><path d="M340.173 133.719c.268.151.534.262.782.317.434.096.792.039 1.061-.13.163-.103.296-.245.398-.428.118-.211.196-.486.22-.806-.823.356-1.643.697-2.461 1.047zm-1.04-.813a102.302 102.302 0 003.18-1.985 5.149 5.149 0 00-.429-.856c-1.137.639-2.283 1.288-3.405 2.005.005.009.008.018.015.025.199.307.413.572.639.811zm1.706-4.064a4.578 4.578 0 00-.574-.425c-.8.715-1.626 1.4-2.476 2.054.063.26.148.531.265.803a38.045 38.045 0 012.785-2.432" fill="#000"/><path d="M340.264 128.418a2.93 2.93 0 00-.881-.368c-.437-.094-.796-.036-1.065.129-.265.173-.473.468-.567.897-.087.395-.078.874.04 1.396a44.931 44.931 0 002.473-2.054z" fill="#7E6AA8"/><path d="M249.779 136.659l8.332-7.258 14.371 16.658-5.076 11.901-17.627-21.301z" fill="#959DA5"/><path d="M252.077 128.056c5.536 5.991 10.872 12.16 16.184 18.338l.099.111-.023.152c-.67 4-1.125 8.045-1.891 12.063l-.631-.127c.757-3.972 1.216-8.021 1.888-12.045l.073.262c-5.316-6.175-10.643-12.338-16.172-18.317l.473-.437z" fill="#000"/><path fill-rule="evenodd" clip-rule="evenodd" d="M269.375 146.152l4.791-.308.041.643-4.791.307-.041-.642z" fill="#000"/><path d="M265.537 140.08c.597-.526.313-1.959-.657-3.247-.993-1.314-2.33-1.981-2.987-1.487-.015.013-.03.021-.043.036l-2.446 2.151c-.6.528-.316 1.958.658 3.246.992 1.316 2.328 1.982 2.983 1.487a.148.148 0 00.043-.036l2.449-2.15z" fill="#A7322C"/><path d="M264.88 136.834c.992 1.319 1.27 2.788.612 3.28-.654.494-1.991-.17-2.986-1.488-.992-1.318-1.267-2.787-.613-3.282.658-.491 1.995.172 2.987 1.49" fill="#DC4F28"/><path d="M259.712 140.393c.441-.398.224-1.556-.497-2.661-.755-1.155-1.816-1.882-2.384-1.595a.197.197 0 00-.042.024l-2.368 1.478c-.651.407-.458 1.789.459 3.095.926 1.312 2.175 1.967 2.781 1.502l.042-.036 2.009-1.807z" fill="#E28D4E"/><path d="M259.215 137.732c.739 1.131.95 2.322.461 2.69-.509.383-1.593-.259-2.41-1.475-.838-1.237-1.025-2.513-.434-2.812.567-.286 1.629.444 2.383 1.597" fill="#F5C88A"/><path d="M355.819 47.451c1.391-.253 2.555.018 3.584.634a5.836 5.836 0 00-4.401-2.004 5.844 5.844 0 00-4.592 9.451 8.67 8.67 0 01-.371-1.444c-.643-3.638 2.57-5.995 5.78-6.637z" fill="#D1D5DA"/><path d="M355.003 57.767a5.84 5.84 0 005.779-6.689 5.841 5.841 0 00-1.378-2.994c-1.032-.616-2.196-.887-3.584-.634-3.213.643-6.422 3-5.783 6.637.088.507.214.987.374 1.445a5.836 5.836 0 004.592 2.235" fill="#F6F8FA"/><path d="M329.54 76.018a5.017 5.017 0 01-.141-.413 12.904 12.904 0 00-3.777 9.134c0 7.14 5.792 12.932 12.932 12.932 4.462 0 8.395-2.258 10.721-5.695-8.679-2.404-16.366-7.532-19.735-15.958" fill="#EDF0F2"/><path d="M338.556 71.805a12.876 12.876 0 00-9.156 3.801c.042.14.087.275.142.41 3.369 8.426 11.055 13.558 19.735 15.962a12.891 12.891 0 002.211-7.24c0-7.144-5.789-12.933-12.932-12.933" fill="#D1D5DA"/><path d="M350.124 73.355c-10.091.507-20.052 6.625-26.287 14.715l-.68-.521c6.444-8.363 16.354-14.517 27.835-15.096-5.93 7.897-1.984-2.181-31.158 23.147l-.564-.646c27.979-24.293 26.051-16.356 30.489-22.28l.365.681z" fill="#B6BFC4"/><path d="M354.436 78.506c-3.577 11.484-12.986 18.148-23.765 20.57l-.093-.416c10.425-2.347 19.979-9.14 23.126-19.243l.37.202c-6.521 7.892-17.197 13.922-27.176 16.562l-.109-.414c9.979-2.64 20.308-8.377 27.647-17.261" fill="#D1D5DA"/><path d="M345.534 82.614c1.949-2.064 3.828-3.973 6.287-5.454l.295.64c-4.995 3.004-7.897 7.496-12.557 10.591-4.381 2.91-10.562 4.105-15.377 6.313l-.09-.192c9.27-4.254 12.458-2.365 21.442-11.898zm-1.337-10.96l.039.21c-9.394 1.696-12.474 6.453-20.7 13.268l-.356-.869c8.202-6.793 11.562-10.902 21.017-12.61z" fill="#E1E4E8"/><path d="M336.195 85.034c-.661 0-1.403.175-2.118.501-.832.38-1.526.917-1.96 1.512-.401.56-.522 1.097-.333 1.514.191.419.677.682 1.364.742.733.066 1.596-.109 2.426-.489.83-.377 1.526-.914 1.958-1.51.404-.562.524-1.1.334-1.516-.19-.416-.675-.681-1.363-.742a3.604 3.604 0 00-.308-.012zm-2.679 5.114c-.114 0-.227-.006-.341-.016-.835-.081-1.438-.46-1.692-1.067-.253-.607-.124-1.352.374-2.097.468-.706 1.213-1.34 2.099-1.78.887-.444 1.81-.643 2.607-.567.839.082 1.442.462 1.695 1.068.254.606.121 1.354-.374 2.1-.47.702-1.215 1.336-2.099 1.777-.764.38-1.554.582-2.269.582" fill="#B6BFC4"/><path clip-rule="evenodd" d="M332.274 88.375c.257.492 1.521.796 3.129.063 1.608-.733 2.205-1.885 1.999-2.401a.19.19 0 00-.026-.06c-.257-.492-1.521-.8-3.129-.067-1.608.734-2.202 1.889-2 2.404a.325.325 0 00.027.061v0zm1.285.71c-.729 0-1.264-.243-1.463-.616v-.004c-.011-.027-.024-.05-.033-.078-.272-.694.456-1.903 2.103-2.658 1.65-.75 3.044-.504 3.388.154a.543.543 0 01.036.079c.271.693-.458 1.906-2.106 2.66-.712.323-1.375.462-1.925.462v0z" stroke="#FAFBFC" stroke-width=".246" stroke-miterlimit="10"/><path d="M370.231 94.128c.153-.063.307-.127.458-.187.178-.072.253-.204.226-.395-.045-.298-.28-.528-.558-.624-.108-.043-.226.009-.314.081-.238.212-.446.47-.543.781a.999.999 0 00.202.96.794.794 0 00.948.208c.295-.142.464-.459.5-.775.061-.553-.371-1.162-.968-1.102a.988.988 0 00-.751.483.779.779 0 00.069.887c.163.2.456.296.706.272.317-.028.597-.209.688-.525.045-.16-.057-.356-.223-.392a.328.328 0 00-.395.222c-.003.016-.027.073-.003.019.021-.058-.003-.006-.01.009-.021.04.055-.057.013-.015-.013.008-.063.051-.016.015.046-.036.007-.007-.005.003-.013.006-.037.012-.046.02.004-.002.085-.026.04-.014a.052.052 0 00-.022.006c-.018.003-.036.009-.057.012-.06.015.075 0 .021-.003-.015 0-.03.003-.048.003-.018 0-.036 0-.051-.003-.046 0 .087.018.012.003-.033-.006-.061-.018-.091-.027-.036-.01.066.036.033.015l-.014-.01c-.019-.008-.034-.02-.052-.029-.039-.025.06.057.018.012-.009-.009-.027-.034-.036-.037.021.01.045.067.018.019-.006-.006-.009-.019-.015-.024-.024-.034.012.03.015.036-.003-.018-.012-.036-.018-.054-.003-.013-.012-.058-.003-.003.009.047.003.018.003.006 0-.019.006-.088-.003-.03-.006.056.009-.022.012-.037.003-.009.009-.021.009-.027.006.033-.03.06-.012.027l.027-.048c.006-.01.048-.072.018-.03-.03.042.021-.018.03-.027.012-.012.043-.03.052-.046-.003.006-.063.042-.021.015a.057.057 0 00.023-.015c.021-.012.043-.02.061-.03.009-.006.039-.021-.003 0-.051.02.003 0 .012-.003.021-.009.046-.009.064-.018.029-.012-.037.006-.04.006l.04-.003c.018-.003.036 0 .057 0 .051 0-.025 0-.031-.006.006.006.028.006.037.009.012.003.081.03.03.01-.051-.025.009.005.024.014.012.006.069.048.024.012-.045-.036.018.015.027.024.013.013.024.037.039.045 0 0-.036-.057-.021-.03 0 .01.006.015.013.022.011.015.021.033.032.051.007.012.04.087.018.033-.023-.055.004.015.01.027.006.021.012.04.015.06.006.018.006.043.012.064 0 0-.003-.075-.006-.042l.003.045v.051c0 .016-.009.088 0 .027.009-.06-.003.015-.006.028a.83.83 0 01-.021.07l-.012.032c0-.003.033-.06.015-.036-.012.015-.018.036-.031.055-.005.011-.047.078-.023.035.021-.033.005-.006-.003 0a.396.396 0 00-.037.043.098.098 0 00-.027.02c.003-.005.048-.033.021-.017-.015.009-.057.023-.069.036.009-.01.073-.018.015-.01a.23.23 0 01-.03.01c-.028.008.036-.006.039-.006h-.051c-.024.009.03.003.039.009-.006-.006-.03-.006-.039-.009-.009-.004-.088-.028-.034-.012.049.018-.021-.013-.033-.018-.009-.006-.033-.027 0 0l-.014-.013c-.016-.014-.04-.051-.055-.06 0 0 .036.055.015.024-.006-.014-.018-.027-.027-.042-.012-.02-.021-.042-.033-.066-.021-.037.018.06.005.021-.002-.015-.008-.027-.011-.04-.003-.014-.01-.026-.012-.042 0-.012-.009-.06-.003-.008.008.05.003.005.003-.007v-.045l.002-.045c0-.042-.015.057-.002.018.009-.03.012-.06.021-.09l.015-.043c.003-.01.024-.057.006-.015-.021.04.003-.006.006-.015a.316.316 0 00.021-.042c.03-.054.067-.106.103-.157.021-.03-.015.018-.015.018 0-.003.036-.04.039-.045.018-.025.042-.049.063-.072.048-.049.094-.094.148-.14-.106.031-.208.058-.314.085.067.024-.057-.04 0 0 .014.011.029.02.046.027.033.021-.049-.045-.01-.003.01.009.033.042.046.049-.025-.016-.036-.052-.01-.007.003.003.028.046.028.046-.018-.04-.021-.049-.015-.028l.012.03c.006.021.009.042.009.064l.226-.398c-.154.063-.307.126-.462.187-.078.033-.144.07-.189.148a.306.306 0 00-.034.247c.048.15.226.293.396.226" fill="#D0D0D0"/><path d="M384.324 117.283c.289 1.221 1.889-.592.507-.758-1.17-.145-.808 1.862.299 1.351 1.212-.557-.378-2.19-.969-.989-.214.438.187 1.056.673.989.482-.069.66-.853.229-1.086-.546-.295-.917.535.115.855" fill="#7C7C7C"/><path d="M333.376 104.072a.52.52 0 00.17-.03.676.676 0 00.208-.12c.042-.036.072-.082.105-.124.018-.028.034-.054.049-.082a.877.877 0 00.078-.329.775.775 0 00-.078-.328.546.546 0 00-.248-.248.333.333 0 00-.359.023.31.31 0 00-.121.214.31.31 0 00.01.125.297.297 0 00.144.193c.019.01.04.019.058.034a1.955 1.955 0 01-.067-.052l.046.046c-.018-.022-.037-.043-.055-.067a.218.218 0 01.042.07c-.008-.025-.021-.049-.033-.075a.284.284 0 01.025.086c-.003-.029-.01-.057-.013-.086a.382.382 0 010 .117c.003-.027.01-.057.013-.085a.413.413 0 01-.034.115.696.696 0 00.034-.079.536.536 0 01-.046.085l.049-.066c-.019.024-.037.042-.055.06.018-.018.039-.033.063-.051a.202.202 0 01-.057.033.901.901 0 00.075-.03.248.248 0 01-.066.018c.027-.003.055-.006.084-.012-.005.003-.014.003-.021.003a.322.322 0 00-.225.549c.06.059.141.093.225.093" fill="#D0D0D0"/><path d="M279.636 64.726c2.341-.616.878-1.792-.039-1.423-1.301.524 1.249 2.002 1.176.654-.018-.317-.416-.58-.838-.773-.713.323-.812 1.014-.209 1.404.54-.121.752-.58.39-.845-.082.13-.013.292.171.383" fill="#7F7F7F"/><path d="M306.058 42.026a.78.78 0 00.761-.266c.193-.238.262-.552.114-.835-.12-.227-.368-.344-.615-.362a.72.72 0 00-.648.295c-.152.215-.136.525.008.737.169.244.438.386.734.34.307-.048.488-.343.585-.609a1.49 1.49 0 00.063-.788.782.782 0 00-.513-.585c-.214-.072-.464-.02-.66.085a.862.862 0 00-.414.51.71.71 0 00.181.672c.311.308.845.296 1.171.024a.718.718 0 00.169-.208c.021-.05.045-.108.057-.162.028-.127-.015-.233-.063-.347a.91.91 0 00-.607-.486c-.268-.057-.561.012-.745.226-.165.203-.253.477-.181.74.079.28.32.458.609.48a.751.751 0 00.643-.327.568.568 0 00.096-.344c-.008-.169-.141-.328-.319-.32-.169.006-.332.142-.323.32 0 .016-.005.079.003.016.01-.064-.003-.01-.006.002-.006.037.039-.066.018-.036l-.009.018c-.003.006-.009.01-.012.016-.012.023.058-.061.021-.028-.009.01-.024.021-.033.03 0 0 .066-.042.039-.03l-.024.018c-.012.006-.027.012-.036.018-.033.021.073-.024.033-.012l-.027.006a.17.17 0 01-.049.012s.095-.006.028-.003c-.015 0-.033-.003-.051-.003-.027.003.051.003.051.01l-.028-.007-.029-.009c.003-.006.069.037.045.019a.122.122 0 00-.042-.025c.003 0 .051.048.036.027a.076.076 0 00-.015-.018c-.009-.005-.027-.03.005.01.034.048.007.006-.002-.007l-.009-.018c-.018-.024.018.042.018.042-.003-.014-.012-.036-.015-.05-.018-.064 0 .063.003.018v-.058c0-.037-.016.079-.006.042.003-.009.003-.018.006-.024.003-.015.005-.03.012-.045l.012-.03c0-.003-.037.063-.019.039.013-.015.022-.037.034-.055.003-.005.009-.011.009-.018 0-.003-.045.052-.024.034.015-.012.024-.027.036-.04.036-.039-.057.037-.012.01.012-.01.039-.018.052-.03 0 0-.067.02-.043.018.012-.003.025-.01.033-.013.015-.003.078-.015.021-.006-.057.013.015.006.031.003.012 0 .042.006-.006-.003-.061-.009.003.003.011.006.021.003.037.013.058.018.033.01-.033-.018-.033-.015.012.007.027.012.042.022.012.006.078.054.036.02-.042-.035.015.012.024.022.018.018.03.039.051.054 0 0-.036-.057-.023-.027l.026.04c.007.011.039.078.016.026-.019-.048-.003-.006 0 .006.005.012.009.03.015.046V40.7l-.018.058c-.006.036.045-.079.015-.036l-.012.024c-.003.006-.009.012-.013.02-.024.043.052-.056.025-.032-.015.015-.033.03-.046.045-.024.027.076-.048.031-.024-.006.006-.016.009-.021.012l-.043.027c-.048.024.069-.027.033-.015l-.029.009c-.022.01-.043.012-.064.018-.07.018.069-.006.021-.003-.024.003-.045.003-.066.003l-.054-.003c-.052 0 .054.006.047.01-.005.002-.029-.007-.039-.01a.294.294 0 01-.057-.015c-.009-.003-.024-.006-.03-.012-.003-.006.082.045.042.018a.243.243 0 00-.048-.027.455.455 0 01.009.006c.045.036.006.006-.003-.006-.006-.003-.012-.012-.021-.021-.021-.021.009-.024.027.036a.171.171 0 00-.027-.042c-.031-.043.024.072.015.033-.003-.009-.009-.018-.012-.03-.003-.01-.003-.021-.006-.03-.015-.052.003.081.003.03.003-.021.003-.04.003-.057 0 .102-.003.042.006.006.015-.049-.04.075-.003.012.012-.022.024-.04.036-.06-.051.087-.021.03 0 .006a.78.78 0 01.051-.046c-.069.07-.03.024 0 .003.021-.012.046-.021.064-.033.036-.021-.082.03-.028.012a.12.12 0 00.024-.009c.022-.006.04-.012.061-.015.078-.018-.082.003 0 0l.066.003c0 .003-.087-.018-.042-.006.009.003.021.003.03.006.009.003.018.009.03.012.036.006-.066-.04-.036-.018l.027.018c.024.012.031.036-.027-.027.012.015.036.048.054.057-.036-.015-.036-.051-.014-.018.005.015.014.027.024.042.023.045-.013.019-.006-.015 0 .006.011.03.014.037.007.023.013.05.018.075.016.063-.003-.064-.003-.018.004.02.004.039.004.06.003.03 0 .06 0 .09-.004.016-.004.028-.004.04-.005.057 0-.019.004-.022-.012.016-.015.08-.022.1-.005.034-.015.066-.024.1l-.027.075-.015.048c-.015.04.027-.057.009-.018-.015.024-.027.055-.045.078.003 0-.024.034-.021.034.03-.036.033-.042.012-.018a.31.31 0 01-.015.015l-.03.027c0-.015.063-.045.009-.012-.06.04.072-.024-.006.003-.049.015.045-.012.042-.006 0 .003-.027 0-.031 0-.054.003.07.018.034.006-.015-.006-.034-.009-.045-.012-.036-.006.078.04.027.012l-.03-.015-.025-.018c-.039-.024.025.018.028.02a.393.393 0 00-.052-.047c-.03-.028.046.07.019.02l-.028-.041c-.006-.01-.009-.022-.014-.028.044.064.023.058.018.034l-.01-.03c-.018-.058 0 .069.003.03v-.037c-.003-.033.021-.02-.009.04.006-.006.006-.024.009-.03.01-.055-.036.06-.009.017l.016-.024c.029-.048-.049.049-.018.024a.083.083 0 00.023-.024c.021-.02.027 0-.033.024.018-.006.036-.018.052-.027-.064.045-.067.024-.034.016.015-.007.031-.01.042-.013.01-.003.018-.003.028-.005.033-.007-.094.005-.028.005.007 0 .079-.003.082.003 0 .003-.09-.018-.042-.006.012.006.027.006.042.01.009.003.018.008.027.008.051.019-.073-.036-.024-.009.009.007.018.01.027.015.027.018.037.043-.018-.015l.048.049c-.057-.052-.036-.055-.018-.024l.012.03c-.042-.064-.015-.06-.009-.024 0 .012.018.078.004.018-.01-.058-.004-.006-.004.009.004.05.018-.064.006-.027-.006.012-.006.027-.006.039l-.006.018c-.012.033-.006.02.012-.027-.015.018-.027.051-.042.075-.018.03-.018-.006.018-.024-.012.006-.027.03-.036.04a.09.09 0 00-.027.023l.024-.018c-.006.003-.012.006-.015.01l-.033.018c-.051.03-.012-.007.014-.004a.183.183 0 00-.039.012c-.065.024.043 0 .016 0h-.034c-.078.006.067.016.007.003-.167-.03-.356.049-.396.227-.036.16.045.362.223.395zm71.576 1.22c.313.212.814.088.99-.253a.693.693 0 00.036-.564.78.78 0 00-.17-.268.662.662 0 00-.274-.169c-.28-.087-.495.22-.558.456a.826.826 0 00.033.545c.154.372.564.55.951.46a.728.728 0 00.231-.1.363.363 0 00.157-.2.774.774 0 00.037-.207.818.818 0 00-.205-.529.734.734 0 00-.501-.25c-.202-.021-.404.076-.549.205a.775.775 0 00-.235.703.427.427 0 00.202.23.839.839 0 00.25.102.917.917 0 00.595-.06.728.728 0 00.373-.414c.127-.32.003-.745-.308-.905-.367-.193-.832.013-.968.396a.667.667 0 00-.012.307c.01.076.088.157.148.193.069.04.172.058.247.033a.334.334 0 00.194-.15.329.329 0 00.029-.248c0-.003 0-.006-.002-.009.005.027.009.058.012.084 0-.02-.003-.042 0-.063a1.198 1.198 0 01-.012.085.424.424 0 01.021-.07.514.514 0 00-.03.076.224.224 0 01.039-.072c-.018.02-.03.041-.049.063a.422.422 0 01.07-.07 1.37 1.37 0 00-.063.051.476.476 0 01.093-.054c-.027.01-.051.022-.079.033a.582.582 0 01.1-.026c-.03.002-.06.005-.087.011a.284.284 0 01.099 0l-.087-.011a.287.287 0 01.075.02c-.027-.012-.054-.02-.078-.033a.302.302 0 01.066.042 1.277 1.277 0 00-.066-.054.709.709 0 01.063.064c-.018-.021-.033-.042-.051-.067.021.028.036.057.051.085a.991.991 0 01-.033-.075.502.502 0 01.033.114c-.006-.027-.009-.057-.012-.085a.517.517 0 01-.003.136.877.877 0 00.012-.087.483.483 0 01-.033.118c.012-.025.021-.052.033-.076a.712.712 0 01-.051.087c.015-.024.033-.045.051-.066a.484.484 0 01-.078.076c.021-.018.045-.034.066-.052a.468.468 0 01-.096.057c.024-.008.048-.02.075-.033a.527.527 0 01-.136.04c.03-.004.058-.01.085-.012a.657.657 0 01-.151 0c.028.005.056.01.085.011a.585.585 0 01-.164-.045c.025.013.051.021.079.034a.458.458 0 01-.124-.073l.148.193v-.015c0 .03.003.058.009.087a.292.292 0 010-.102.395.395 0 00-.009.084.295.295 0 01.03-.108.37.37 0 00-.03.079.5.5 0 01.054-.103.602.602 0 01-.051.066.84.84 0 01.094-.09c-.022.015-.043.033-.067.051a.59.59 0 01.099-.06c-.023.012-.047.02-.075.033a.51.51 0 01.109-.03.608.608 0 01-.084.012.467.467 0 01.09 0 .586.586 0 01-.084-.013.552.552 0 01.099.028l-.076-.03a.354.354 0 01.091.054.881.881 0 00-.066-.052.381.381 0 01.084.085c-.016-.023-.034-.045-.051-.067a.545.545 0 01.069.116c-.011-.028-.024-.055-.033-.08a.501.501 0 01.03.116.604.604 0 00-.012-.085c.006.035.007.07.004.106a.655.655 0 01.011-.088.574.574 0 01-.021.082c.049-.064.096-.127.148-.19a.753.753 0 01-.088.048c.028-.012.055-.025.079-.033a.486.486 0 01-.129.036.931.931 0 01.084-.012.477.477 0 01-.136 0c.03.002.06.009.084.012a.746.746 0 01-.138-.036c.024.008.051.018.075.03a.726.726 0 01-.106-.06c.024.014.042.033.064.048a.9.9 0 01-.076-.076.721.721 0 00.052.063.32.32 0 01-.063-.105l.033.079a.488.488 0 01-.033-.118c.002.027.008.057.011.084a.608.608 0 010-.147.604.604 0 00-.011.084.488.488 0 01.036-.13c-.013.028-.025.052-.034.079a.396.396 0 01.061-.106c-.019.021-.034.042-.052.063.022-.026.046-.047.067-.072-.103.03-.208.057-.311.085a.112.112 0 01.033.012c-.024-.012-.051-.022-.078-.033a.435.435 0 01.084.044c-.024-.015-.045-.033-.069-.047a.35.35 0 01.069.066l-.051-.066c.021.03.039.06.054.093a.562.562 0 00-.033-.079.39.39 0 01.033.115c-.003-.03-.009-.057-.012-.087a.486.486 0 010 .093c.003-.027.009-.054.012-.085a.286.286 0 01-.024.09c.009-.026.021-.05.031-.077-.01.027-.025.048-.04.072l.048-.066a.374.374 0 01-.063.066l.063-.051a.436.436 0 01-.09.051.497.497 0 00.078-.033.354.354 0 01-.111.03c.027-.003.057-.006.087-.012a.29.29 0 01-.106 0c.028.006.058.01.085.012a.294.294 0 01-.087-.024c.023.012.051.021.075.033a.386.386 0 01-.06-.033c-.139-.094-.362-.03-.44.115a.329.329 0 00.117.44zm-214.429 73.712a.588.588 0 00.268.274c.118.055.25.091.383.079.269-.021.519-.142.667-.374a.63.63 0 00.078-.483c-.009-.024-.018-.051-.03-.075a.223.223 0 00-.084-.091.316.316 0 00-.193-.069h-.006a.907.907 0 01.087.012c-.042-.009-.084-.027-.121-.039a1.01 1.01 0 00-.187-.057c-.244-.054-.492-.025-.676.153a.825.825 0 00-.22.422.335.335 0 00.034.248c.042.071.11.124.189.148a.347.347 0 00.251-.03.338.338 0 00.147-.193.717.717 0 01.04-.139c-.009.027-.021.051-.034.079a.459.459 0 01.064-.109c-.018.024-.033.045-.051.066a.384.384 0 01.057-.057c-.021.015-.042.033-.066.048a.5.5 0 01.072-.039l-.079.033a.431.431 0 01.085-.024 1.242 1.242 0 01-.088.012.5.5 0 01.134.003.885.885 0 00-.088-.012.982.982 0 01.229.061c.079.026.142.047.227.057-.103-.079-.209-.157-.311-.236.003.006.003.016.006.021-.006-.027-.009-.054-.013-.084a.282.282 0 010 .082l.01-.085a.265.265 0 01-.021.078l.033-.078a.553.553 0 01-.046.082l.049-.067a.409.409 0 01-.072.072.94.94 0 00.063-.051c-.037.033-.081.054-.124.075.024-.011.048-.024.076-.033a.79.79 0 01-.142.04c.027-.004.057-.01.084-.012a.61.61 0 01-.135 0c.026.005.057.008.084.012a.325.325 0 01-.1-.028c.028.013.052.024.078.034a.307.307 0 01-.075-.042c.025.018.046.032.067.05a.384.384 0 01-.057-.057c.018.021.033.046.051.067a.283.283 0 01-.04-.067.315.315 0 00-.192-.148.34.34 0 00-.248.031.35.35 0 00-.148.192.6.6 0 01-.012.085c0 .06.015.112.046.163zm22.161 17.309c-.833.04-.803.911-.287 1.276.938.664 1.46-1.33.287-1.276zm-86.15 44.485c-1.475-2.045-1.435 1.867-.108.77.157-.127.29-.522.109-.77zm27.812-88.903c.413 0 .413-.643 0-.643-.414 0-.414.643 0 .643z" fill="#D0D0D0"/><path d="M246.695 132.019c-1.192-1.833-2.423-3.596-3.663-5.354a5.199 5.199 0 00-1.092 1.704l3.08 4.881a3.608 3.608 0 001.675-1.231" fill="#959DA5"/><path d="M244.367 125.78a3.704 3.704 0 00-1.333.884c1.24 1.759 2.468 3.52 3.66 5.354.283-.38.497-.833.605-1.354l-2.932-4.884z" fill="#959DA5"/><path d="M246.584 139.072c-.682-.966-1.942-1.415-2.814-1.005a2.07 2.07 0 00-.212.124 1.156 1.156 0 00-.25.238l-.166.199-.486.592-.196.238c-.362.444-.344 1.152.103 1.783.042.06.085.117.132.172.564.654 1.455.953 2.121.703l1.316-.501.108-.045c.075-.039.145-.079.212-.124.681-.486.753-1.494.132-2.374z" fill="#376EE3"/><path d="M245.193 139.997c.567.805.44 1.738-.287 2.079-.727.344-1.776-.031-2.344-.836-.57-.803-.44-1.738.287-2.078.727-.344 1.776.029 2.344.835z" fill="#00CEFF"/><path d="M257.362 144.652l3.677-2.688 5.892 6.82-2.362 4.571-7.207-8.703z" fill="#000"/><path d="M258.604 140.664c1.223.93 1.057 4.043 1.057 4.043s.132 1.544 1.152 1.572c1.023.026 3.117-.414 3.167.853.054 1.264-1.459 2.525-.223 2.827 1.24.298 2.601.313 3.108.995" stroke="#376EE3" stroke-width=".579" stroke-miterlimit="10"/><path d="M265.08 126.73c-.386-1.342-2.404-1.587-3.475-.978-2.205 1.207-1.55 5.536-6.709 8.821l.576.902c5.298-3.367 5.056-7.928 6.652-8.788.398-.229 1.988-.489 1.991.818-.006 1.116-.649 2.83.024 4.112.251-.269.561-.465.884-.649-.429-1.122.44-2.981.057-4.238z" fill="#F15A24"/><path d="M265.04 131.013c-.007-.014-.01-.03-.015-.045-.323.184-.634.38-.884.649.093.178.211.344.346.492.187.196.402.359.622.482l.524-.932c-.28-.16-.479-.368-.593-.646" fill="#F9E1BA"/><path d="M257.642 123.884a3.666 3.666 0 01-.507-.395c-3.656 5.183 2.425 4.531-2.706 9.919l.465.443c5.463-5.753-.64-5.14 2.748-9.967z" fill="#009245"/><path d="M257.948 123.455l-.512-.386c-.102.139-.203.279-.302.42.163.15.332.283.507.395l.307-.429z" fill="#F9E1BA"/><path d="M285.708 107.996c.087-.054.247-.12.488-.15.079-.01.155-.015.233-.015h.009a.784.784 0 01.419.072.934.934 0 01-.494.154 1.058 1.058 0 01-.655-.061zm.438.806c.111 0 .22-.009.313-.021a1.554 1.554 0 001.104-.546.542.542 0 00.097-.244.609.609 0 00-.009-.275c-.151-.528-.908-.672-1.539-.6a1.555 1.555 0 00-1.104.549.59.59 0 00-.1.241.565.565 0 00.013.274c.129.456.718.622 1.225.622" fill="#0366D6"/><path d="M289.699 85.148c1.391-.205 3.913-.429 5.21.422a.921.921 0 01.254.208.815.815 0 01.142.287c.084.507-.607 1.387-1.334 2.32-.154.196-.32.419-.486.636-.944-1.575-2.274-2.86-3.786-3.873zm-17.97 22.932v.003c-1.061-.696-2.57-2.268-3.388-3.384 1.174.105 2.097.31 2.278.353l.096.021.184-.703-.105-.027c-.018-.003-1.321-.338-2.959-.42a14.32 14.32 0 01-.875-1.556c1.068.151 2.118.409 3.134.769l.099.036.263-.682-.096-.039a16.146 16.146 0 00-3.726-.871c-.866-2.17-1.192-4.525-.914-7.15.434-4.09 2.513-7.216 6.169-9.282a18.82 18.82 0 018.064-2.287c.105-.006.211-.006.322-.006 3.759 0 10.176 2.1 12.767 6.83.92 1.68 1.451 3.207 1.596 4.812-.241-.25-.51-.438-.812-.438-.021 0-.039.003-.057.003-.682.048-1.303.679-2.019 1.409l-.023.021c-.779.802-1.663 1.713-2.634 1.795-2.305.2-4.033-.754-5.716-1.677-1.82-.993-3.536-1.937-5.795-1.367-2.389.6-3.726 3.349-4.178 5.716a9.276 9.276 0 00-.003 3.364c.09.649.132 1.023-.034 1.189-.769.763-1.704 2.208-.805 4.106-.215-.142-.465-.26-.658-.414l-.103-.063c-.003-.003-.005-.006-.008-.006l-.064-.055zm23.723-12.45l-.063-.099c.03-1.994-.474-3.834-1.506-5.816.139-.184.278-.362.405-.534.091-.111.177-.223.262-.335.936-1.2 1.611-2.066 1.476-2.892a1.456 1.456 0 00-.724-1c-2.082-1.366-6.474-.406-6.511-.4-.009 0-.021.009-.03.012-2.866-1.653-6.142-2.447-8.461-2.447-.124 0-.242.003-.359.006a19.619 19.619 0 00-8.411 2.383c-3.882 2.196-6.082 5.509-6.537 9.84-.302 2.836.106 5.216.82 7.186a9.087 9.087 0 00-1.267.036l-.014.003c-.013 0-.025 0-.055.007a6.873 6.873 0 00-.434.066c-.046.006-.088.018-.13.027-.16.03-.314.067-.462.109a.368.368 0 00-.28.38.358.358 0 00.325.334c.05.009.1.008.149-.003.279-.081.565-.141.853-.178a8.373 8.373 0 011.608-.032c.247.585.525 1.125.815 1.625a9.73 9.73 0 00-1.982.221l-.019-.004-.026.013c-.013 0-.022.005-.043.009-.138.036-.283.072-.425.114-.043.016-.082.027-.121.042a5.738 5.738 0 00-.447.163.372.372 0 00-.195.163.362.362 0 00.304.54.104.104 0 00.043 0 .353.353 0 00.12-.021 5.57 5.57 0 01.83-.271c.784-.194 1.626-.241 2.422-.227 1.81 2.737 3.949 4.061 3.991 4.082l.009.003c.595.48 1.313.884 2.087 1.249l.049.051.027-.021c.498.229.999.461 1.563.642l.033-.102.507-.289c.033.008.054.021.088.029l.029-.099.031-.103a13.104 13.104 0 01-1.852-.696c-1.687-1.973-.975-3.464-.061-4.369.437-.434.35-1.043.242-1.818a8.84 8.84 0 010-3.12c.407-2.145 1.574-4.624 3.641-5.143 1.973-.495 3.502.338 5.267 1.306 1.604.878 3.261 1.786 5.454 1.786.217 0 .437-.009.666-.027 1.24-.103 2.23-1.116 3.101-2.013.568-.579 1.156-1.176 1.563-1.206h.006c.205 0 .619.624.827.941-.09 2.531-1.083 5.376-3.128 9.394-.13.257-.184.543-.16.823.003.212-.009.426-.037.634-.144 1.168-1.3 2.241-3.245 3.029-2.888 1.167-7.056 1.508-10.629.862l-.032.209h.003l-.067.419-.018.106c.757.135 1.551.232 2.356.283.658.043 1.24.051 1.783.051 2.359 0 4.673-.419 6.89-1.249 2.208-.889 3.526-2.177 3.707-3.62.031-.246.043-.494.037-.742a.896.896 0 01.078-.473c.087-.172.151-.323.236-.492.579-.054 1.122-.069 1.593-.006.271.04.515.097.756.175.022.003.043.006.067.006.018 0 .036 0 .051-.006a.338.338 0 00.22-.102.4.4 0 00.112-.221.354.354 0 00-.036-.247.322.322 0 00-.181-.145 4.847 4.847 0 00-.41-.108l-.115-.028a6.835 6.835 0 00-.401-.066c-.013 0-.024-.003-.045-.006l-.007.003c-.371-.042-.826.006-1.252.027l.166-.353c.251-.03.525-.084.749-.084h.029a4.8 4.8 0 01.779.072c.042.006.09 0 .121-.009a.367.367 0 00.211-.133.418.418 0 00.091-.232.362.362 0 00-.064-.232.287.287 0 00-.199-.124 4.368 4.368 0 00-.425-.054 1.239 1.239 0 00-.121-.012 5.64 5.64 0 00-.411-.012l-.029-.003-.028.003c-.106.003-.22.027-.326.033 1.346-2.956 2.004-5.298 2.067-7.43l.066-.042z" fill="#0366D6"/><path d="M270.969 88.147c.217-.498.697-.803 1.427-.906.175-.023.368-.036.564-.036 1.997 0 4.887 1.225 6.094 2.661l.066.082.561-.474-.069-.082c-1.345-1.602-4.45-2.92-6.661-2.92-.229 0-.45.015-.657.043-.981.139-1.669.6-1.998 1.336-1.384 3.116-.805 7.4.604 9.448l.06.088.603-.413-.057-.09c-1.297-1.886-1.822-5.847-.537-8.737" fill="#0366D6"/><path d="M272.132 95.585c0-1.702.713-4.468 2.037-6.245.153-.199 1.623.115 3.508 1.017l.094.045.316-.663-.099-.045c-1.693-.803-3.834-1.585-4.411-.791-1.417 1.919-2.187 4.875-2.187 6.682v.106h.742v-.106zm5.345 20.165c-2.233 5.12-4.788 10.148-8.097 14.695l-.519-.38c3.27-4.489 5.801-9.476 8.027-14.571l.589.256z" fill="#0366D6"/><path d="M275.486 113.72c-2.516 3.509-6.764 9.02-9.88 12.028" stroke="#0366D6" stroke-width=".644" stroke-miterlimit="10"/><path d="M280.231 111.492c-.16 1.931-.676 3.762-1.24 5.562a67.192 67.192 0 01-1.967 5.304c-1.487 3.463-3.074 6.887-5.194 10.055l-.525-.372c2.063-3.077 3.659-6.501 5.125-9.93a66.898 66.898 0 001.952-5.252c.555-1.774 1.059-3.588 1.207-5.406l.642.039z" fill="#0366D6"/><path d="M254.749 119.129c2.826-6.887 11.059-8.92 8.739 2.251" stroke="#0366D6" stroke-width=".644" stroke-miterlimit="10"/><path d="M345.7 126.511c-.368-.034-.872-.021-1.068.047-.127.121-.187.181-.021.598.286.7.799 1.421 1.27 2.112.968 1.39 2.003 2.751 3.041 4.105l6.323 8.082 2.503 3.2c1.952 2.601 3.642 5.358 5.476 7.989a.446.446 0 01-.443.687.44.44 0 01-.284-.18v-.003c-1.838-2.673-3.509-5.427-5.415-7.997l-2.489-3.18-6.326-8.094c-1.044-1.357-2.081-2.724-3.071-4.139-.483-.724-.99-1.399-1.36-2.283-.085-.223-.178-.48-.145-.824.069-.417.259-.606.597-.826.621-.202 1.002-.134 1.478-.118a.413.413 0 11-.021.826c-.009 0-.018 0-.027-.002h-.018z" fill="#0366D6"/><path d="M345.514 125.75c1.822-.799 3.75-.675 5.56-.325 1.813.404 3.52 1.221 5.004 2.319 2.99 2.224 4.939 5.521 6.182 8.924l5.224 15.635a.45.45 0 01-.023.336.44.44 0 01-.812-.056l-.003-.008-5.156-15.636c-1.207-3.3-3.083-6.444-5.898-8.54-1.399-1.032-3.001-1.795-4.693-2.178-1.671-.335-3.527-.408-5.02.262l-.036.015a.4.4 0 01-.446-.077.386.386 0 01-.091-.131.407.407 0 01.205-.54h.003z" fill="#0366D6"/><path d="M263.589 115.609c6.471.682 15.262-9.91 13.663-4.082m.001 0c-1.789 2.576-8.015 8.492-13.593 9.687" stroke="#0366D6" stroke-width=".644" stroke-miterlimit="10"/><path d="M368.912 152.425c-2.447-.064-4.987.207-7.482.75-.099.021-.193.046-.286.067m-8.848 4.718c-2.332 2.561-3.174 5.695-2.902 8.679.344 3.81 2.178 8.933 1.502 11.168-1.267 2.715.154 4.962 7.446 6.974 7.288 2.013 18.748-1.122 21.659-5.068 3.358-4.555 5.391-10.911 4.172-16.501-.715-3.294-2.347-5.737-4.561-7.457m-32.622 26.948c2.016-1.355 4.574-2.917 7.15-2.16m-5.671 5.389c2.075-1.424 3.871-3.204 6.459-3.774m25.788-8.181c1.846-.404 4.027-1.291 5.982-.748m-7.031 3.927c2.199-.477 4.992-1.493 7.198-.28" stroke="#0366D6" stroke-width=".883" stroke-miterlimit="10"/><path d="M368.911 152.425s1.798-2.917 6.057-3.832c.196-.042.434.036.61.199.802.748 3.037 3.114 4.033 6.963m-27.315 2.205c-.374-2.112-.625-5.716.724-6.362 1.951-.938 5.716.181 9.861 2.603" stroke="#0366D6" stroke-width=".883" stroke-miterlimit="10" stroke-linecap="square"/><path d="M337.521 199.16c-.814-.224-1.952-.312-2.325.168-.381.425-.052 1.602.099 2.489.41 1.846 1.197 3.686 2.624 4.829l-.029-.018c3.049 1.958 6.733 2.818 10.367 3.213 3.656.386 7.367.202 11.033-.247h.002c2.124-.217 3.853-1.696 4.794-3.638.993-1.919 1.497-4.1 1.909-6.269.788-4.371 1.15-8.842 1.792-13.285l.873.127c-.638 4.413-1 8.877-1.796 13.318-.425 2.211-.932 4.446-2 6.519-.977 2.082-3.043 3.877-5.463 4.1l-.003.002c-3.713.453-7.485.643-11.234.248-3.719-.407-7.509-1.273-10.757-3.351l-.018-.01-.016-.011c-1.677-1.361-2.497-3.382-2.938-5.337a16.13 16.13 0 01-.26-1.496c-.057-.474-.126-1.189.339-1.744.464-.555 1.134-.654 1.665-.67a5.712 5.712 0 011.595.218l-.253.845z" fill="#0366D6"/><path d="M367.238 185.522c-1.228 1.135-1.982 2.77-2.625 4.414l-1.849 5.056c-1.242 3.391-2.784 6.699-4.766 9.75l-.739-.48c1.936-2.983 3.451-6.223 4.679-9.581l1.852-5.071c.664-1.671 1.433-3.415 2.866-4.748l.582.66z" fill="#0366D6"/><path d="M335.76 200.671c.292-.978.874-2.112 1.967-2.613 1.055-.495 2.144-.495 3.176-.431 2.082.157 4.042.727 5.973 1.33 3.85 1.228 7.548 2.878 11.325 4.085l-.256.842c-3.877-1.24-7.534-2.875-11.338-4.088-1.894-.591-3.827-1.147-5.761-1.288-.954-.069-1.955-.036-2.73.34-.784.359-1.234 1.171-1.515 2.085l-.841-.262zm30.502 1.614c.036 2.568-.073 5.155.103 7.693.189 2.527.585 5.089 1.659 7.336.996 2.272 3.149 3.961 5.632 3.741 2.446-.151 4.755-1.427 6.803-2.875l.515.714c-2.126 1.494-4.518 2.86-7.273 3.041-1.36.07-2.802-.262-3.934-1.086-1.143-.799-1.96-1.945-2.539-3.149-1.153-2.428-1.542-5.068-1.744-7.662-.175-2.61-.066-5.18-.102-7.774l.88.021z" fill="#0366D6"/><path d="M370.799 184.689c4.95 2.615 6.142 21.937 8.247 25.557" stroke="#0366D6" stroke-width=".883" stroke-miterlimit="10"/><path d="M383.564 208.359c1.511.347 2.136 1.937 2.271 3.111.178 1.257.094 2.485-.042 3.695-.284 2.417-.866 4.758-1.457 7.08-.296 1.153-.63 2.323-.85 3.446-.022.129-.049.286-.046.37 0 .1-.006-.008-.021.013l.096.163c.139.207.293.398.489.527.38.266.884.353 1.412.287 2.13-.356 4.16-1.97 5.491-3.741 1.448-2.311 2.865-4.929 2.621-7.617-.127-1.294-.685-2.672-1.457-3.626-.902-.86-2.278-1.363-3.581-1.777a26.442 26.442 0 00-3.75-.857c-1.228-.189-2.458-.003-3.623.456-2.326.947-4.332 2.67-6.332 4.317l-.567-.673c2.015-1.659 4.04-3.421 6.579-4.465 1.262-.507 2.7-.724 4.067-.507 1.315.199 2.614.495 3.885.884 1.37.456 2.779.908 3.955 2.01 1.014 1.248 1.518 2.634 1.702 4.154.135 1.511-.199 3.005-.737 4.362-.558 1.363-1.243 2.606-2.039 3.843-1.529 1.973-3.505 3.638-6.118 4.114-1.252.206-3.17-.579-2.896-2.389.242-1.224.571-2.353.866-3.517.592-2.304 1.158-4.625 1.436-6.96.13-1.164.208-2.346.045-3.46-.147-1.107-.627-2.175-1.613-2.386l.214-.857z" fill="#0366D6"/><path d="M371.326 185.955c.981 4.616 1.032 9.255 1.358 13.862.151 2.299.314 4.6.612 6.872.32 2.25.721 4.561 1.747 6.489l-.76.446c-1.153-2.172-1.523-4.519-1.858-6.818-.305-2.311-.471-4.624-.619-6.935-.323-4.603-.389-9.267-1.336-13.714l.856-.202zm10.715 25.583c-.621 2.296-1.099 4.673-1.11 7.017.008 1.176.129 2.35.536 3.405.387 1.072 1.117 1.944 2.019 2.686l-.564.675c-.959-.781-1.841-1.822-2.281-3.043-.459-1.21-.579-2.483-.591-3.717.015-2.495.504-4.899 1.143-7.261l.848.238zm11.902 1.5c.938.916 2.172 1.695 3.233 2.676.537.491 1.059 1.031 1.454 1.704.423.627.567 1.596.495 2.265-.142 2.878-.649 5.687-1.638 8.417-.444 1.086-.914 2.166-1.671 3.152-.381.471-.863.99-1.638 1.146-.82.127-1.5-.373-1.895-.841-.83-.98-1.257-2.091-1.662-3.191a29.668 29.668 0 01-.938-3.373l.86-.19c.25 1.11.537 2.211.91 3.269.378 1.047.819 2.118 1.491 2.896.679.897 1.508.652 2.184-.265.648-.842 1.116-1.888 1.535-2.926h.003c.936-2.567 1.448-5.376 1.579-8.124.192-1.339-.656-2.359-1.663-3.288-1.005-.935-2.19-1.662-3.276-2.718l.637-.609z" fill="#0366D6"/><path d="M370.266 184.383c1.542-.064 2.574.793 3.575 1.484.986.748 1.888 1.578 2.754 2.431 1.729 1.71 3.334 3.524 4.929 5.334l2.402 2.684c.407.425.832.875 1.243 1.189.368.265.667.193 1.068-.172.742-.742 1.234-1.877 1.671-2.956.41-1.035.498-2.239.607-3.421v-.003c.246-3.28.289-6.64 1.052-9.946.389-1.638.975-3.303 2.1-4.685 1.119-1.409 2.968-2.157 4.717-2.136h.076l.03.012c.483.172.622.411.827.642.178.236.316.486.431.74.236.513.362 1.049.446 1.584l-.871.124a5.223 5.223 0 00-.374-1.343 3.227 3.227 0 00-.335-.57c-.106-.16-.332-.32-.332-.32l.106.012c-1.563 0-3.065.606-4.049 1.822-.98 1.201-1.541 2.752-1.912 4.32-.74 3.174-.784 6.495-1.035 9.813-.114 1.207-.187 2.453-.667 3.674-.467 1.132-.92 2.296-1.888 3.28-.401.531-1.566.814-2.178.247-.549-.419-.945-.857-1.375-1.303l-2.42-2.706c-1.593-1.807-3.188-3.608-4.887-5.288-.854-.836-1.732-1.644-2.666-2.353-.909-.679-2.001-1.382-2.927-1.316l-.118-.874z" fill="#0366D6"/><path d="M394.941 176.075c1.177.235 2.368.685 3.319 1.523.962.824 1.541 2.027 1.764 3.225.426 2.438-.174 4.809-.926 7.011-1.601 4.41-4.103 8.401-7.013 12.03-1.481 1.792-3.066 3.527-4.996 4.93-.956.612-2.094 1.466-3.56 1.079-1.291-.434-2.114-1.363-2.896-2.244-2.953-3.704-4.871-7.973-6.525-12.311l.83-.301c1.611 4.253 3.554 8.515 6.365 12.042.718.833 1.547 1.674 2.477 1.97.856.283 1.916-.35 2.802-.959 1.807-1.31 3.373-3.011 4.818-4.767 2.853-3.551 5.318-7.493 6.868-11.761.731-2.122 1.274-4.405.887-6.55-.31-2.205-2.195-3.71-4.383-4.051l.169-.866z" fill="#0366D6"/><path d="M293.368 119.527c1.753-.181 3.852-.507 5.913-.507 6.023 0 8.835 4.458 8.835 5.059 0 1.424-.784 1.647-21.406 1.647-5.885 0-6.736.151-7.228-2.99-.398-2.549.383-4.398-.395-7.158m.618-4.721c1.288 1.761 2.937 3.723 2.971 9.707" stroke="#0366D6" stroke-width=".644" stroke-miterlimit="10"/><path d="M307.39 122.816c-.672-3.768-3.791-6.473-6.615-6.473-5.164 0-12.553 4.072-17.11 4.072-.682 0-1.301-.09-1.838-.302" stroke="#0366D6" stroke-width=".644" stroke-miterlimit="10"/><path d="M240.476 103.071c.812-.676 1.674-.951 2.555-.951 2.658 0 5.445 2.519 7.237 4.112 4.769 4.251 6.869 5.31 10.151 5.31 2.115 0 11.264-1.675 15.044-1.179m27.105 12.022c0-.758-1.397-1.373-3.118-1.373-1.72 0-3.117.615-3.117 1.373 0 .757 1.397 1.372 3.117 1.372 1.721 0 3.118-.615 3.118-1.372zm-10.411.636c0-.844-1.451-1.53-3.237-1.53s-3.237.686-3.237 1.53 1.451 1.529 3.237 1.529 3.237-.685 3.237-1.529zm-28.496-1.807c.181 1.541-4.51.467-9.621.117-1.469-3.429 2.169-2.239 5.807-.558l3.814.441z" stroke="#0366D6" stroke-width=".644" stroke-miterlimit="10"/><path d="M241.395 102.479a3.908 3.908 0 00-1.556-.235c-1.539.093-.269 3.263 1.813 5.17 2.087 1.904 9.795 6.254 12.968 7.161 2.13.61 11.24-.853 17.379-1.882" stroke="#0366D6" stroke-width=".644" stroke-miterlimit="10"/><path d="M372.553 203.981c.928.227 1.875 1.608 2.265 3.418.434 2.016.012 3.835-.944 4.203m-2.173-17.239c.078-.018.16-.027.238-.027 1.144 0 2.073 1.759 2.073 3.928 0 1.988-.781 3.632-1.795 3.891m19.461 15.039c0-2.329-1.172-4.22-2.616-4.22-1.444 0-2.615 1.891-2.615 4.22 0 2.33 1.171 4.221 2.615 4.221 1.444 0 2.616-1.891 2.616-4.221z" stroke="#0366D6" stroke-width=".883" stroke-miterlimit="10"/><path d="M391.143 229.264c-.832-.238-1.571-.754-2.123-1.382a7.526 7.526 0 01-.972-1.417l.776-.417c.247.45.522.881.857 1.249.467.531 1.05.929 1.707 1.119l-.245.848z" fill="#0366D6"/><path d="M394.296 216.478c.078-.015.16-.021.241-.021 1.277 0 2.311 1.78 2.311 3.976 0 2.193-1.034 3.973-2.311 3.973-1.167 0-2.129-1.481-2.289-3.411" stroke="#0366D6" stroke-width=".883" stroke-miterlimit="10"/><path clip-rule="evenodd" d="M302.75 98.148c2.231-10.956-6.191-21.934-18.793-24.5-12.603-2.566-24.646 4.246-26.877 15.202-2.23 10.957 6.191 21.935 18.794 24.501 12.603 2.566 24.646-4.247 26.876-15.203v0zm87.416 63.285c-2.939-12.295-16.825-19.528-30.99-16.143-14.166 3.387-23.28 16.117-20.342 28.412 2.938 12.295 16.825 19.528 30.99 16.143 14.166-3.387 23.281-16.117 20.342-28.412z" stroke="#0366D6" stroke-width=".883" stroke-miterlimit="10" stroke-linecap="round"/></svg>
